<mxfile modified="2022-05-29T07:50:56.387Z" host="app.diagrams.net" agent="5.0 (Windows NT 10.0; Win64; x64) AppleWebKit/537.36 (KHTML, like Gecko) Chrome/101.0.4951.67 Safari/537.36" etag="RP5OoJq0Kf5AKqDJTRh-" version="17.4.6" type="github">
  <diagram id="d1ab7348-05c3-a1e3-ca4d-12c340fd6b49" name="Page-1">
    <mxGraphModel dx="2060" dy="1194" grid="1" gridSize="10" guides="1" tooltips="1" connect="1" arrows="1" fold="1" page="1" pageScale="1" pageWidth="1169" pageHeight="827" background="none" math="0" shadow="0">
      <root>
        <mxCell id="0" />
        <mxCell id="1" parent="0" />
        <mxCell id="2" value="" style="fillColor=#F6F6F6;strokeColor=none;shadow=0;gradientColor=none;fontSize=14;align=left;spacing=10;fontColor=#717171;9E9E9E;verticalAlign=top;spacingTop=-4;fontStyle=0;spacingLeft=40;html=1;" parent="1" vertex="1">
          <mxGeometry x="240" y="100" width="810" height="590" as="geometry" />
        </mxCell>
        <mxCell id="4" value="Elastic Cluster" style="rounded=1;absoluteArcSize=1;arcSize=2;html=1;strokeColor=none;gradientColor=none;shadow=0;dashed=0;fontSize=12;fontColor=#9E9E9E;align=left;verticalAlign=top;spacing=10;spacingTop=-4;fillColor=#FFEBEE;" parent="1" vertex="1">
          <mxGeometry x="580" y="440" width="200" height="130" as="geometry" />
        </mxCell>
        <mxCell id="5" value="Storage" style="rounded=1;absoluteArcSize=1;arcSize=2;html=1;strokeColor=none;gradientColor=none;shadow=0;dashed=0;fontSize=12;fontColor=#9E9E9E;align=left;verticalAlign=top;spacing=10;spacingTop=-4;fillColor=#E1F5FE;" parent="1" vertex="1">
          <mxGeometry x="850" y="260" width="180" height="250" as="geometry" />
        </mxCell>
        <mxCell id="6" value="Ingest" style="rounded=1;absoluteArcSize=1;arcSize=2;html=1;strokeColor=none;gradientColor=none;shadow=0;dashed=0;fontSize=12;fontColor=#9E9E9E;align=left;verticalAlign=top;spacing=10;spacingTop=-4;fillColor=#E1F5FE;" parent="1" vertex="1">
          <mxGeometry x="400" y="300" width="380" height="110" as="geometry" />
        </mxCell>
        <mxCell id="50" style="edgeStyle=orthogonalEdgeStyle;rounded=0;html=1;labelBackgroundColor=none;startFill=1;startSize=4;endArrow=blockThin;endFill=1;endSize=4;jettySize=auto;orthogonalLoop=1;strokeColor=#9E9E9E;strokeWidth=2;fontSize=12;fontColor=#000000;align=left;dashed=0;" parent="1" source="7" target="26" edge="1">
          <mxGeometry relative="1" as="geometry" />
        </mxCell>
        <mxCell id="7" value="Scientist" style="rounded=1;absoluteArcSize=1;arcSize=2;html=1;strokeColor=none;gradientColor=none;shadow=0;dashed=0;fontSize=12;fontColor=#9E9E9E;align=left;verticalAlign=top;spacing=10;spacingTop=-4;fillColor=#F3E5F5;" parent="1" vertex="1">
          <mxGeometry x="70" y="560" width="110" height="120" as="geometry" />
        </mxCell>
        <mxCell id="49" style="edgeStyle=orthogonalEdgeStyle;rounded=0;html=1;labelBackgroundColor=none;startFill=1;startSize=4;endArrow=none;endFill=0;endSize=4;jettySize=auto;orthogonalLoop=1;strokeColor=#9E9E9E;strokeWidth=2;fontSize=12;fontColor=#000000;align=left;dashed=0;" parent="1" source="8" target="7" edge="1">
          <mxGeometry relative="1" as="geometry" />
        </mxCell>
        <mxCell id="56" value="Carrier&lt;br style=&quot;font-size: 10px;&quot;&gt;Interconnect&lt;br style=&quot;font-size: 10px;&quot;&gt;" style="edgeStyle=orthogonalEdgeStyle;rounded=0;html=1;labelBackgroundColor=none;startFill=1;startSize=4;endArrow=blockThin;endFill=1;endSize=4;jettySize=auto;orthogonalLoop=1;strokeColor=#9E9E9E;strokeWidth=2;fontSize=10;fontColor=#9E9E9E;align=center;dashed=0;verticalAlign=bottom;" parent="1" source="8" target="2" edge="1">
          <mxGeometry relative="1" as="geometry">
            <Array as="points">
              <mxPoint x="200" y="190" />
              <mxPoint x="200" y="190" />
            </Array>
          </mxGeometry>
        </mxCell>
        <mxCell id="8" value="High&lt;br&gt;Throughput&lt;br&gt;Genome&lt;br&gt;Sequences&lt;br&gt;" style="rounded=1;absoluteArcSize=1;arcSize=2;html=1;strokeColor=none;gradientColor=none;shadow=0;dashed=0;fontSize=12;fontColor=#9E9E9E;align=left;verticalAlign=top;spacing=10;spacingTop=-4;fillColor=#F1F8E9;" parent="1" vertex="1">
          <mxGeometry x="70" y="110" width="110" height="430" as="geometry" />
        </mxCell>
        <mxCell id="9" value="Architecture:&amp;nbsp;internationalization" style="fillColor=#4DA1F5;strokeColor=none;shadow=1;gradientColor=none;fontSize=14;align=left;spacingLeft=50;fontColor=#ffffff;html=1;" parent="1" vertex="1">
          <mxGeometry x="20" y="40" width="1980" height="40" as="geometry" />
        </mxCell>
        <mxCell id="10" value="" style="strokeColor=#dddddd;fillColor=#ffffff;shadow=1;strokeWidth=1;rounded=1;absoluteArcSize=1;arcSize=2;labelPosition=center;verticalLabelPosition=middle;align=center;verticalAlign=bottom;spacingLeft=0;fontColor=#999999;fontSize=12;whiteSpace=wrap;spacingBottom=2;html=1;" parent="1" vertex="1">
          <mxGeometry x="90" y="180" width="70" height="70" as="geometry" />
        </mxCell>
        <mxCell id="11" value="" style="dashed=0;connectable=0;html=1;fillColor=#757575;strokeColor=none;shape=mxgraph.gcp2.mobile_devices;part=1;" parent="10" vertex="1">
          <mxGeometry x="0.5" width="50" height="36.5" relative="1" as="geometry">
            <mxPoint x="-25" y="16.75" as="offset" />
          </mxGeometry>
        </mxCell>
        <mxCell id="12" value="" style="strokeColor=#dddddd;fillColor=#ffffff;shadow=1;strokeWidth=1;rounded=1;absoluteArcSize=1;arcSize=2;labelPosition=center;verticalLabelPosition=middle;align=center;verticalAlign=bottom;spacingLeft=0;fontColor=#999999;fontSize=12;whiteSpace=wrap;spacingBottom=2;html=1;" parent="1" vertex="1">
          <mxGeometry x="90" y="270" width="70" height="70" as="geometry" />
        </mxCell>
        <mxCell id="13" value="" style="dashed=0;connectable=0;html=1;fillColor=#757575;strokeColor=none;shape=mxgraph.gcp2.mobile_devices;part=1;" parent="12" vertex="1">
          <mxGeometry x="0.5" width="50" height="36.5" relative="1" as="geometry">
            <mxPoint x="-25" y="16.75" as="offset" />
          </mxGeometry>
        </mxCell>
        <mxCell id="14" value="" style="strokeColor=#dddddd;fillColor=#ffffff;shadow=1;strokeWidth=1;rounded=1;absoluteArcSize=1;arcSize=2;labelPosition=center;verticalLabelPosition=middle;align=center;verticalAlign=bottom;spacingLeft=0;fontColor=#999999;fontSize=12;whiteSpace=wrap;spacingBottom=2;html=1;" parent="1" vertex="1">
          <mxGeometry x="90" y="360" width="70" height="70" as="geometry" />
        </mxCell>
        <mxCell id="15" value="" style="dashed=0;connectable=0;html=1;fillColor=#757575;strokeColor=none;shape=mxgraph.gcp2.mobile_devices;part=1;" parent="14" vertex="1">
          <mxGeometry x="0.5" width="50" height="36.5" relative="1" as="geometry">
            <mxPoint x="-25" y="16.75" as="offset" />
          </mxGeometry>
        </mxCell>
        <mxCell id="16" value="" style="strokeColor=#dddddd;fillColor=#ffffff;shadow=1;strokeWidth=1;rounded=1;absoluteArcSize=1;arcSize=2;labelPosition=center;verticalLabelPosition=middle;align=center;verticalAlign=bottom;spacingLeft=0;fontColor=#999999;fontSize=12;whiteSpace=wrap;spacingBottom=2;html=1;" parent="1" vertex="1">
          <mxGeometry x="90" y="450" width="70" height="70" as="geometry" />
        </mxCell>
        <mxCell id="17" value="" style="dashed=0;connectable=0;html=1;fillColor=#757575;strokeColor=none;shape=mxgraph.gcp2.mobile_devices;part=1;" parent="16" vertex="1">
          <mxGeometry x="0.5" width="50" height="36.5" relative="1" as="geometry">
            <mxPoint x="-25" y="16.75" as="offset" />
          </mxGeometry>
        </mxCell>
        <mxCell id="18" value="" style="strokeColor=#dddddd;fillColor=#ffffff;shadow=1;strokeWidth=1;rounded=1;absoluteArcSize=1;arcSize=2;labelPosition=center;verticalLabelPosition=middle;align=center;verticalAlign=bottom;spacingLeft=0;fontColor=#999999;fontSize=12;whiteSpace=wrap;spacingBottom=2;html=1;" parent="1" vertex="1">
          <mxGeometry x="90" y="590" width="70" height="70" as="geometry" />
        </mxCell>
        <mxCell id="19" value="" style="dashed=0;connectable=0;html=1;fillColor=#757575;strokeColor=none;shape=mxgraph.gcp2.laptop;part=1;" parent="18" vertex="1">
          <mxGeometry x="0.5" width="50" height="33" relative="1" as="geometry">
            <mxPoint x="-25" y="18.5" as="offset" />
          </mxGeometry>
        </mxCell>
        <mxCell id="39" style="edgeStyle=orthogonalEdgeStyle;rounded=0;html=1;labelBackgroundColor=none;startFill=1;startSize=4;endArrow=blockThin;endFill=1;endSize=4;jettySize=auto;orthogonalLoop=1;strokeColor=#4284F3;strokeWidth=2;fontSize=12;fontColor=#000000;align=left;dashed=0;startArrow=blockThin;" parent="1" source="20" target="10" edge="1">
          <mxGeometry relative="1" as="geometry">
            <Array as="points">
              <mxPoint x="210" y="360" />
              <mxPoint x="210" y="215" />
            </Array>
          </mxGeometry>
        </mxCell>
        <mxCell id="40" style="edgeStyle=orthogonalEdgeStyle;rounded=0;html=1;labelBackgroundColor=none;startFill=1;startSize=4;endArrow=blockThin;endFill=1;endSize=4;jettySize=auto;orthogonalLoop=1;strokeColor=#4284F3;strokeWidth=2;fontSize=12;fontColor=#000000;align=left;dashed=0;startArrow=blockThin;" parent="1" source="20" target="12" edge="1">
          <mxGeometry relative="1" as="geometry" />
        </mxCell>
        <mxCell id="41" style="edgeStyle=orthogonalEdgeStyle;rounded=0;html=1;labelBackgroundColor=none;startFill=1;startSize=4;endArrow=blockThin;endFill=1;endSize=4;jettySize=auto;orthogonalLoop=1;strokeColor=#4284F3;strokeWidth=2;fontSize=12;fontColor=#000000;align=left;dashed=0;startArrow=blockThin;" parent="1" source="20" target="14" edge="1">
          <mxGeometry relative="1" as="geometry" />
        </mxCell>
        <mxCell id="42" style="edgeStyle=orthogonalEdgeStyle;rounded=0;html=1;labelBackgroundColor=none;startFill=1;startSize=4;endArrow=blockThin;endFill=1;endSize=4;jettySize=auto;orthogonalLoop=1;strokeColor=#4284F3;strokeWidth=2;fontSize=12;fontColor=#000000;align=left;dashed=0;startArrow=blockThin;" parent="1" source="20" target="16" edge="1">
          <mxGeometry relative="1" as="geometry">
            <Array as="points">
              <mxPoint x="210" y="360" />
              <mxPoint x="210" y="485" />
            </Array>
          </mxGeometry>
        </mxCell>
        <mxCell id="43" style="edgeStyle=orthogonalEdgeStyle;rounded=0;html=1;labelBackgroundColor=none;startFill=1;startSize=4;endArrow=blockThin;endFill=1;endSize=4;jettySize=auto;orthogonalLoop=1;strokeColor=#4284F3;strokeWidth=2;fontSize=12;fontColor=#000000;align=left;dashed=0;" parent="1" source="20" target="22" edge="1">
          <mxGeometry relative="1" as="geometry" />
        </mxCell>
        <mxCell id="20" value="" style="strokeColor=#dddddd;fillColor=#ffffff;shadow=1;strokeWidth=1;rounded=1;absoluteArcSize=1;arcSize=2;fontSize=11;fontColor=#9E9E9E;align=center;html=1;" parent="1" vertex="1">
          <mxGeometry x="260" y="330" width="110" height="60" as="geometry" />
        </mxCell>
        <mxCell id="21" value="Cloud&#xa;Network" style="dashed=0;connectable=0;html=1;fillColor=#5184F3;strokeColor=none;shape=mxgraph.gcp2.hexIcon;prIcon=cloud_network;part=1;labelPosition=right;verticalLabelPosition=middle;align=left;verticalAlign=middle;spacingLeft=5;fontColor=#999999;fontSize=12;" parent="20" vertex="1">
          <mxGeometry y="0.5" width="44" height="39" relative="1" as="geometry">
            <mxPoint x="5" y="-19.5" as="offset" />
          </mxGeometry>
        </mxCell>
        <mxCell id="44" style="edgeStyle=orthogonalEdgeStyle;rounded=0;html=1;labelBackgroundColor=none;startFill=1;startSize=4;endArrow=blockThin;endFill=1;endSize=4;jettySize=auto;orthogonalLoop=1;strokeColor=#4284F3;strokeWidth=2;fontSize=12;fontColor=#000000;align=left;dashed=0;startArrow=blockThin;" parent="1" source="22" target="24" edge="1">
          <mxGeometry relative="1" as="geometry" />
        </mxCell>
        <mxCell id="22" value="" style="strokeColor=#dddddd;fillColor=#ffffff;shadow=1;strokeWidth=1;rounded=1;absoluteArcSize=1;arcSize=2;fontSize=11;fontColor=#9E9E9E;align=center;html=1;" parent="1" vertex="1">
          <mxGeometry x="420" y="330" width="130" height="60" as="geometry" />
        </mxCell>
        <mxCell id="23" value="Cloud Load&#xa;Balancing" style="dashed=0;connectable=0;html=1;fillColor=#5184F3;strokeColor=none;shape=mxgraph.gcp2.hexIcon;prIcon=cloud_load_balancing;part=1;labelPosition=right;verticalLabelPosition=middle;align=left;verticalAlign=middle;spacingLeft=5;fontColor=#999999;fontSize=12;" parent="22" vertex="1">
          <mxGeometry y="0.5" width="44" height="39" relative="1" as="geometry">
            <mxPoint x="5" y="-19.5" as="offset" />
          </mxGeometry>
        </mxCell>
        <mxCell id="45" style="edgeStyle=orthogonalEdgeStyle;rounded=0;html=1;labelBackgroundColor=none;startFill=1;startSize=4;endArrow=blockThin;endFill=1;endSize=4;jettySize=auto;orthogonalLoop=1;strokeColor=#4284F3;strokeWidth=2;fontSize=12;fontColor=#000000;align=left;dashed=0;" parent="1" source="24" target="30" edge="1">
          <mxGeometry relative="1" as="geometry">
            <Array as="points">
              <mxPoint x="830" y="360" />
              <mxPoint x="830" y="310" />
            </Array>
          </mxGeometry>
        </mxCell>
        <mxCell id="47" style="edgeStyle=orthogonalEdgeStyle;rounded=0;html=1;labelBackgroundColor=none;startFill=1;startSize=4;endArrow=blockThin;endFill=1;endSize=4;jettySize=auto;orthogonalLoop=1;strokeColor=#9E9E9E;strokeWidth=2;fontSize=12;fontColor=#000000;align=left;dashed=0;" parent="1" source="24" target="34" edge="1">
          <mxGeometry relative="1" as="geometry">
            <Array as="points">
              <mxPoint x="830" y="360" />
              <mxPoint x="830" y="465" />
            </Array>
          </mxGeometry>
        </mxCell>
        <mxCell id="55" style="edgeStyle=orthogonalEdgeStyle;rounded=0;html=1;labelBackgroundColor=none;startFill=1;startSize=4;endArrow=blockThin;endFill=1;endSize=4;jettySize=auto;orthogonalLoop=1;strokeColor=#4284F3;strokeWidth=2;fontSize=12;fontColor=#000000;align=left;dashed=0;" parent="1" source="24" target="4" edge="1">
          <mxGeometry relative="1" as="geometry">
            <Array as="points">
              <mxPoint x="680" y="410" />
              <mxPoint x="680" y="410" />
            </Array>
          </mxGeometry>
        </mxCell>
        <mxCell id="24" value="" style="shape=mxgraph.gcp2.doubleRect;strokeColor=#dddddd;fillColor=#ffffff;shadow=1;strokeWidth=1;fontSize=11;fontColor=#9E9E9E;align=center;html=1;" parent="1" vertex="1">
          <mxGeometry x="595" y="326" width="168" height="68" as="geometry" />
        </mxCell>
        <mxCell id="25" value="&lt;font color=&quot;#000000&quot;&gt;Ingest Server&lt;/font&gt;&lt;br&gt;Compute Engine" style="dashed=0;connectable=0;html=1;fillColor=#5184F3;strokeColor=none;shape=mxgraph.gcp2.hexIcon;prIcon=compute_engine;part=1;labelPosition=right;verticalLabelPosition=middle;align=left;verticalAlign=middle;spacingLeft=5;fontColor=#999999;fontSize=12;" parent="24" vertex="1">
          <mxGeometry y="0.5" width="44" height="39" relative="1" as="geometry">
            <mxPoint x="5" y="-19.5" as="offset" />
          </mxGeometry>
        </mxCell>
        <mxCell id="51" style="edgeStyle=orthogonalEdgeStyle;rounded=0;html=1;labelBackgroundColor=none;startFill=1;startSize=4;endArrow=blockThin;endFill=1;endSize=4;jettySize=auto;orthogonalLoop=1;strokeColor=#9E9E9E;strokeWidth=2;fontSize=12;fontColor=#000000;align=left;dashed=0;startArrow=blockThin;" parent="1" source="26" target="36" edge="1">
          <mxGeometry relative="1" as="geometry">
            <Array as="points">
              <mxPoint x="740" y="620" />
              <mxPoint x="740" y="620" />
            </Array>
          </mxGeometry>
        </mxCell>
        <mxCell id="26" value="" style="strokeColor=#dddddd;fillColor=#ffffff;shadow=1;strokeWidth=1;rounded=1;absoluteArcSize=1;arcSize=2;fontSize=11;fontColor=#9E9E9E;align=center;html=1;" parent="1" vertex="1">
          <mxGeometry x="260" y="590" width="145" height="60" as="geometry" />
        </mxCell>
        <mxCell id="27" value="&lt;font color=&quot;#000000&quot;&gt;Lab notebooks&lt;/font&gt;&lt;br&gt;Cloud Datalab" style="dashed=0;connectable=0;html=1;fillColor=#5184F3;strokeColor=none;shape=mxgraph.gcp2.hexIcon;prIcon=cloud_datalab;part=1;labelPosition=right;verticalLabelPosition=middle;align=left;verticalAlign=middle;spacingLeft=5;fontColor=#999999;fontSize=12;" parent="26" vertex="1">
          <mxGeometry y="0.5" width="44" height="39" relative="1" as="geometry">
            <mxPoint x="5" y="-19.5" as="offset" />
          </mxGeometry>
        </mxCell>
        <mxCell id="48" style="edgeStyle=orthogonalEdgeStyle;rounded=0;html=1;labelBackgroundColor=none;startFill=1;startSize=4;endArrow=none;endFill=0;endSize=4;jettySize=auto;orthogonalLoop=1;strokeColor=#9E9E9E;strokeWidth=2;fontSize=12;fontColor=#000000;align=left;dashed=0;startArrow=blockThin;" parent="1" source="4" target="24" edge="1">
          <mxGeometry relative="1" as="geometry">
            <Array as="points">
              <mxPoint x="830" y="509" />
              <mxPoint x="830" y="360" />
            </Array>
          </mxGeometry>
        </mxCell>
        <mxCell id="28" value="" style="shape=mxgraph.gcp2.doubleRect;strokeColor=#dddddd;fillColor=#ffffff;shadow=1;strokeWidth=1;fontSize=11;fontColor=#9E9E9E;align=center;html=1;" parent="1" vertex="1">
          <mxGeometry x="595" y="470" width="165" height="78" as="geometry" />
        </mxCell>
        <mxCell id="29" value="&lt;font color=&quot;#000000&quot;&gt;HPC Cluster&lt;/font&gt;&lt;br&gt;Compute Engine&lt;hr&gt;&lt;font style=&quot;font-size: 11px&quot;&gt;10 Nodes&lt;/font&gt;" style="dashed=0;connectable=0;html=1;fillColor=#5184F3;strokeColor=none;shape=mxgraph.gcp2.hexIcon;prIcon=compute_engine;part=1;labelPosition=right;verticalLabelPosition=middle;align=left;verticalAlign=top;spacingLeft=5;fontColor=#999999;fontSize=12;spacingTop=-8;" parent="28" vertex="1">
          <mxGeometry width="44" height="39" relative="1" as="geometry">
            <mxPoint x="5" y="7" as="offset" />
          </mxGeometry>
        </mxCell>
        <mxCell id="30" value="" style="strokeColor=#dddddd;fillColor=#ffffff;shadow=1;strokeWidth=1;rounded=1;absoluteArcSize=1;arcSize=2;fontSize=11;fontColor=#9E9E9E;align=center;html=1;" parent="1" vertex="1">
          <mxGeometry x="860" y="296" width="160" height="60" as="geometry" />
        </mxCell>
        <mxCell id="31" value="&lt;font color=&quot;#000000&quot;&gt;Metadata&lt;/font&gt;&lt;br&gt;Cloud SQL" style="dashed=0;connectable=0;html=1;fillColor=#5184F3;strokeColor=none;shape=mxgraph.gcp2.hexIcon;prIcon=cloud_sql;part=1;labelPosition=right;verticalLabelPosition=middle;align=left;verticalAlign=middle;spacingLeft=5;fontColor=#999999;fontSize=12;" parent="30" vertex="1">
          <mxGeometry y="0.5" width="44" height="39" relative="1" as="geometry">
            <mxPoint x="5" y="-19.5" as="offset" />
          </mxGeometry>
        </mxCell>
        <mxCell id="32" value="" style="strokeColor=#dddddd;fillColor=#ffffff;shadow=1;strokeWidth=1;rounded=1;absoluteArcSize=1;arcSize=2;fontSize=11;fontColor=#9E9E9E;align=center;html=1;" parent="1" vertex="1">
          <mxGeometry x="860" y="365" width="160" height="60" as="geometry" />
        </mxCell>
        <mxCell id="33" value="&lt;font color=&quot;#000000&quot;&gt;Raw Datafiles&lt;/font&gt;&lt;br&gt;Cloud Storage" style="dashed=0;connectable=0;html=1;fillColor=#5184F3;strokeColor=none;shape=mxgraph.gcp2.hexIcon;prIcon=cloud_storage;part=1;labelPosition=right;verticalLabelPosition=middle;align=left;verticalAlign=middle;spacingLeft=5;fontColor=#999999;fontSize=12;" parent="32" vertex="1">
          <mxGeometry y="0.5" width="44" height="39" relative="1" as="geometry">
            <mxPoint x="5" y="-19.5" as="offset" />
          </mxGeometry>
        </mxCell>
        <mxCell id="34" value="" style="strokeColor=#dddddd;fillColor=#ffffff;shadow=1;strokeWidth=1;rounded=1;absoluteArcSize=1;arcSize=2;fontSize=11;fontColor=#9E9E9E;align=center;html=1;" parent="1" vertex="1">
          <mxGeometry x="860" y="435" width="160" height="60" as="geometry" />
        </mxCell>
        <mxCell id="35" value="&lt;font color=&quot;#000000&quot;&gt;Processed Data&lt;/font&gt;&lt;br&gt;Cloud Storage" style="dashed=0;connectable=0;html=1;fillColor=#5184F3;strokeColor=none;shape=mxgraph.gcp2.hexIcon;prIcon=cloud_storage;part=1;labelPosition=right;verticalLabelPosition=middle;align=left;verticalAlign=middle;spacingLeft=5;fontColor=#999999;fontSize=12;" parent="34" vertex="1">
          <mxGeometry y="0.5" width="44" height="39" relative="1" as="geometry">
            <mxPoint x="5" y="-19.5" as="offset" />
          </mxGeometry>
        </mxCell>
        <mxCell id="36" value="Analytics" style="rounded=1;absoluteArcSize=1;arcSize=2;html=1;strokeColor=none;gradientColor=none;shadow=0;dashed=0;fontSize=12;fontColor=#9E9E9E;align=left;verticalAlign=top;spacing=10;spacingTop=-4;fillColor=#E1F5FE;" parent="1" vertex="1">
          <mxGeometry x="850" y="560" width="180" height="100" as="geometry" />
        </mxCell>
        <mxCell id="52" style="edgeStyle=orthogonalEdgeStyle;rounded=0;html=1;labelBackgroundColor=none;startFill=1;startSize=4;endArrow=blockThin;endFill=1;endSize=4;jettySize=auto;orthogonalLoop=1;strokeColor=#9E9E9E;strokeWidth=2;fontSize=12;fontColor=#000000;align=left;dashed=0;startArrow=blockThin;" parent="1" source="36" target="5" edge="1">
          <mxGeometry relative="1" as="geometry" />
        </mxCell>
        <mxCell id="37" value="" style="strokeColor=#dddddd;fillColor=#ffffff;shadow=1;strokeWidth=1;rounded=1;absoluteArcSize=1;arcSize=2;fontSize=11;fontColor=#9E9E9E;align=center;html=1;" parent="1" vertex="1">
          <mxGeometry x="860" y="590" width="160" height="60" as="geometry" />
        </mxCell>
        <mxCell id="38" value="&lt;font color=&quot;#000000&quot;&gt;Online Analytics&lt;/font&gt;&lt;br&gt;BigQuery" style="dashed=0;connectable=0;html=1;fillColor=#5184F3;strokeColor=none;shape=mxgraph.gcp2.hexIcon;prIcon=bigquery;part=1;labelPosition=right;verticalLabelPosition=middle;align=left;verticalAlign=middle;spacingLeft=5;fontColor=#999999;fontSize=12;" parent="37" vertex="1">
          <mxGeometry y="0.5" width="44" height="39" relative="1" as="geometry">
            <mxPoint x="5" y="-19.5" as="offset" />
          </mxGeometry>
        </mxCell>
        <mxCell id="46" style="edgeStyle=orthogonalEdgeStyle;rounded=0;html=1;labelBackgroundColor=none;startFill=1;startSize=4;endArrow=blockThin;endFill=1;endSize=4;jettySize=auto;orthogonalLoop=1;strokeColor=#4284F3;strokeWidth=2;fontSize=12;fontColor=#000000;align=left;dashed=0;" parent="1" source="24" target="32" edge="1">
          <mxGeometry relative="1" as="geometry">
            <Array as="points">
              <mxPoint x="830" y="360" />
              <mxPoint x="830" y="405" />
            </Array>
          </mxGeometry>
        </mxCell>
        <mxCell id="wvWwExwZX9Q3AOM2qn_e-56" value="" style="shape=image;verticalLabelPosition=bottom;verticalAlign=top;imageAspect=0;aspect=fixed;image=data:image/webp,UklGRooYAABXRUJQVlA4IH4YAABwuwCdASpWAvQBPpFEnkwlo60iIhFJCaASCWlu7ulSKOAQFbJMn/GerrxqiA+yzONPN/uD4s9kjcDw/0LlA/dP+7cY9E2Tz8+P8bzg+z+w6yC+s1/recz651HQRfO+UT3+PnAonv8fOBRPf4+cCie/x84FE9/j5wKJ7/HzgUT3+PnAonv8fOBRPf4+cCie/x84FE9/j5wKJcJYRIC3MNYoBpeVWtFXlx9YON6Cie/x84FE9/j5wKJhjL/mXi4f/jiiVvFUDciPOjHzkXRyRANF9U16qMusd97UjSA5ZpF5nZ/1BAipuOE5XCVCtVzrRKfarnWiU+1Hy+x+sNeKfl6lA7QnZjSKOTfQF5MVEZ6YrTuAUMe8oupkNxJIN+tURK4UtCRLdGX6jcdyYIQTRsp7X1vtVzrRKfarnWiU+xtmBiy8omEDcpDE4j7jr5VwlMT6PZ6gSVu3VKI7h+i1E65cFbteNpKMUfnl4IsJ7/HzgUT3+PnAol3Cl/uJSWwBory5yUOAyMlzuTlrK5Rhk+biAndQbWx2OvTNv//kwzsTUPhGVTaJU6daJT7Vc60Sn2q51ViDjRfVHBizDevAXbZZmNMjq/h1ntcK/CGfH2j5wKJ7/HzgUT38W6c/kv4uTxHed1/MIC+pxoI5i1Ws/NElB7Vc60Sn2q51olNkWtItGOMdzS6f4lieuMkuMWEiUeiO1rujfLo/aqbTHXnG76VZM0GWlolPtVzrRKfarkHUwmnUV9vCT/5uzfpnpOQIS73jGiSwEygRsMdh4MnTk07ncz+NETK4MFFarnWiU+1XIM3H+2hwfl9RfsTHKpm/tKLgmfBhpJbEpc4RWhHCuIju1L8XID+QD5wKJ7/HzgUT3+HkcH+5z0ih1DXINfnLTcc++YqROzW1Zv7EUPzvlE9/j5wKJ7/DnprS8iMh3K4Cz4+sVVL+XEha4kotbj9JJS+rDrYCK8Q80GCitVzrRKfarnVXI3oSiH3XRxXfKaElqmTVNUXOSlGziuUsECxP8syATPNBm4NpvhH7R84FE9/j5wKDmf9rqh1OXg+oPlFWVdGuPGr6wirmillCf6hnsocK3UPbukCFKiSn2q51olPtVyFHqz4VJg1I8whtAgJSGnt2DInuqHiJPchRgp0k0VCC3VlE9/j5wKJ7+WgLmYqMy4RC0GrQ6tp2YPhGLNQg3RYalzola6+n2NPicPHfKJ7/HzgUT38tJakeDA0X4dDFx15lnYaAB0ukKqW3d57VTv2ALasrQ75ho+cCie/x84FE8rr2l/jUploPhFSkfVYJD/TYGdOgOAaPhMzWuyQL3k5GM+QrODWfPzGmdp451olPtVzrQ7+xZMEpqu23n4H4H8bTBOB9/mNpr7CPahx6bbOocaLa6ODAU9sEb9TmTckp9qudaJT8icW0iCRr0kecr/iTHiBZxZE+SUrWOvn65L9tTg6vsCBj/t6QqcP/7j3rrfJoWr2IaoQSr5twxRIGaQCC/6M3+IhFMOErBUQ67WitXv2SMM8jl1N9kMrDVCY1k9ZRvFGF7a479ekc5BOhl3FbMtYGByIEAVl4ujLYqw1iFjGRlP2b4ScLD11bzP3yiidetFE6VeI9TcQUKFT4NUvr8kgy02BFPhK3Vw0Ykhf1zxIka9RR6FQBlp+4IDfeljSaJ/Xr2s6RbsPbfbANrJhiZ5U0hr4ftW/8DX3HRdY/Una8i1FOypPfpnuCleWNvuUbsbQRZP+YUJajIgHzgUUDx1fyr3z2jJZEo/CvtjIGqb6IQIxvy1TM+HBY9gvu061tCK/zo9m77vw9j5V2GW78ZiaNsxiFh+0VsJfA/ZFWXAPwXazyp40/9gAijfjP5SGXyKFs+SX0uOKY+sSLkf1imphq5SXuz4+hXbZbR84GuI4eCaXOYWtdbhmMF/Kam6PDVRPf4+eZGkmobxewVLKOlIA4FE9/j5wKJ7/In+ff3U5XpNk9/j5wKJ7/HzgUT4Cg+PoVu+tEp9qudaJT7VccAAD+/iLAAAAAAAeeli/f4gB6wjlme00Frqv6g6Po+TH96x9ZnuwdrarcOpNpASgjEtRlfCL6k79ehJVRazXgo3MidQvLq6bBsOoipsx3bZOH5nuBvo9/938F/9x+qelQviDc1i4ohfCxy2j2dq0AV/LBZ2Y9+aSu3LG8dtXgACe1uZFoUjbZxK6IRoTfywH/eT+w9SK2X+qfrq1+LWLnwgFOlmv+39FS5aLbmlsKi1sDjSEnGzegjjJZ5jKG+z6joU+utijtaGzmBgToIceMO/d3Aqe9b6sZX/LyQ9tlwV1hHwgxrPEdde+C1M0fJuwMSHsTgP0CRSbINYwqjAR1hTbcqweP2HtqI4Mru+Nrr2TFEGvAzs1V+uCGE+TqHV5psOdKq7UCOuHTM/XjyR7Z4IrSFIS207DTzYMBU+Hbpet+Jh+QJ+luajboKJbwdO4ATcGO7giXbYshzp1qFBsCwP2xzhd4JejQBGtxbuiR3veHXC1kO2d1lwhn8eeYrX8/TIWhCZUqHRoKarwEvqhU0hPjlFXMhXiaRDdQqkSq39+lNw4CT7pkJ9zZXTpgQN4RQXAOEOKy5zdXg9URqFb7j1AwFa3gvzQ4l0P9w0OttwsFfL37gtDEdxemegxTXC0GLH8TKhtmExD4vY3bLlCzDnIKZpYEM4GqpN4Tgdq4pxZGifAB0h89tjyl/SWuaLpoG4ONJmV8o9ivBetibUAlpEEjaKqwhuMy2kWB5qudJ1iSJGBKxl1qCJ16jr52eu+jm98d0ux+zd9MFjPW8UYTDluqLFJRRwKpykSy2vyUUwfIaKXwjeFgw8m7I4avg9/DSg6oDc2TgncD2ryTnvcz/1PLLdjIKrasLgPkUHoa1lPxlEwTyGIUy/dAz1u5AQu2KPDvnwzukADt6KLYiaLaJOVney6ax7VW/494I1OUmsMOwa8vh/1jw4Ah7NCnqIP6ARexDAL0AwmEQtO7UxUNtfnhg5e82fzzTiPrr3AnwIjvkh7piSDo4AJjkSUbSfMWf92w4vvr8gSCc+7I/jd+9Rxs4hmOL4kMgCtMt0UHJ8tSOSenu5pzd8WaTgv6sNn1Kh55KEp/y7+aicHSDcNg+9IEwivQG8bgisSlVnTvqL+BJ/CS9z30E4lhD5nB3tna9SOyoktZUgMTH1I8Bo3j8X7xxcw5O3rNgDEQ1wuf9fSUyPoGo7LL2d17+zoGcmu0fa+AcPOnnGRS49dnKR8L4ZRvk7yZ+I/DhX+Cidm1abSju/CmBQXZwiTJzI0sXxt68abKNMfRdjpla6yVxOSPXYahDL8O1JoKevEq3n7baWhGZ430oVsUz6vOkTlPA7nNMyGXXeLfQm+hob2aGkMrJpYa+DxH/urmuz4S7l0oaEGYUe+4w+v7v2THLA+k0HXicBKHnMO86welOETC0UjnecsF2XokUTBTi1cHoE1S6CCBCx00Gqxf3r1tgQA9QKpAYR3rSHRNFfmxKRHuQwfqGImDEJJ7OWtJiDuNLBj6NGw3N5KHtAldFc9sRpUm/bSjFSUBj9CH+8PYzvv84fvIXofWgZprEtPyz0rjr1KVJdYxbxNy85KAA4eeKXcr+7jXEBwbrNkIMQJDG/axtinIe8vuNdGldNPZJ/3ZcOX1TOjkEgK8tNJt+P2OlqUHPJkQwTYgrOCcTMAu1KYGVO09aPtbN8uvoN+BKoDXPdGX7jbKCr9EjrxI7D4oWS+OLeY63PCwClInVS0erutkA5dVysoFTQxoH9VUDcHmzU0ajtBGV1Om8zcc/Y8Y5ZYpHwmcqWsLmIe4JhnpudEpYUpt0H26QH7riqX/p1CoKWpHcNPn4r7eyEnMJ4OPdiqQDSP382ucAsdX8komo+bCFdJRo77wa2z6xwNeK9D6Kf4kmcLpLdL2Z4Vwar7769s19NnY60akw+u5kYDWDjmwLWLRnSwzQrQme5zWHHjXrHGGF9cGtOADn9/CX37eaEMVw5jZSN4SJ8Tw28pwiNRJ3m7DyBMnUR4hiZzZRL4Bi9HCKrOXCr9NgYenwbgG0AA1lpuzet+quo4vCPieNDgiXpWVMBbKt47VemANw1nAufG7hKxGfD6QsKy11joH2yvAfkUlVrUhNXcJb1oIK/bAkGaNA/Cn+/4CRN9k8xAwRMFHf9u4LHMbKpBRB2MW/xTmF4Jh59uUUP6gEsLiuTOaMrIRCPEEx515coBEpzRNzUAaHm4fZAXIgVssRprv9Ev4IjpGsQ6anLwLQSVkMJuBI5er4N7tuYS1e5rtWjWq8ItEqYEENDbamiYrqAxqsUHFclqw6Fpw+Pv3+m80epe+WSbMKHsuXazTKVChepQyno2oVIZ/LnD2pOI+UDar8vXW76sPoKxuL6PRVrpNcwcTx0qBKY7HZFohZGN+BK3qMwMs5g4NuUYWOKeL5k81vXRuzLx8NNkBuRwAyDaCEXXWeEpz8id0R9+CkU66vQ7Yy9qIbGHP22eqxKXyFJqJ7GGM06JiZXkWRAONZGb6jpVpOBxKCIZpjTlyZT3lMU3WtlO5Gy56hc9L1KKiQD20cp6CgnWwpYpU75vpDThwCahfDpjZDEF+MCxJ8Xh84KseOwL0c38UgVbhPVpM7SG8kpDBNwUMfQ6rgaCTm9R/KLlpYslNZgLuzeSTsN359oL4PWC5aoMD+2yeoJWAbQk1nnrMIBJiIaosk6YP/4TIPMGCNJ2n5kYwenWORYGO/eG/9EKHXfOrMLlOLcYCVKT9OQ+aAkjS2qgeRCZz4O9tIAWhRN1qqlQDg+Xa2m+8y8GV/RF4LIDDgzO9eLUb2R6h+x1j2jmjx1B2xapFqNym+SH2OnAbJ9DpcN8HOkGwOPVvzVljpqFQsj801NNMeHn+i90j+A54PoAAyjJWp3dBGDK98xb3ywO0yl+eSpau0rtRBgbOmcFQKoyjM5uxMhc8Cm5TjKvs17c8op21L7Xf0jgCVitDFFtjSmIacGbZTVycoDzyMe3a5Lvg8PaOxivR/5Pi3rTIy7ZQAD3wOn6f9qiWSCw687SvRab0vjjv8xFn1V5vRosmHK8g3ILbde6F1LxJbkxefD9hHNTLM/JR3fRIx8hykh2KWMp7yiCOVynMKxbX9CmN1w9UkUvPVQ7FFIIdSRvqTOdHNM3UiPXeREdXj8U6rFdkyurr/BDoXwRBhWE9bh/oYXmsJ4zdVgCI2Oudl3NsRRj7nKMkrRKvAnpreVW5eQaiHdDeyjs1L2y6zpHgeHDMNGmln8MsDFnvKH13fF2mqUQzYiupHH7zX4bbJYcGpHZoyEbQ0yvfsdHVGgkgpBIAhFCeNJ7PLrCngaG5qWB7uDeMzhqVDeTSUyBy8dbvt2cmcBvtZCIqRiVzGgKKWFiZ/EHxkgboUoRBkh4Rho7dS0j9JFEGkHv/2Fy+D1cviRA0+8k/rakZMfYe2CkrHCa7kBfgu2wF1KCm9xwpF7WPRlXK/vOCY+aJ70rK5LVOpSWLzvkp4zC+BuTiKE9TmVPa2GEm5LsvvnHIG8frhiN6dTuRqFP4LvY7vwQiS/7JZU4CeXq7rEnNiYLi2/JgI1MLm7IJlXgozYsh7DsANeLqMGu3/wbRWQbB3nNaf8gMOKnegwXF+gJ8Tb2QCR+vCpSEmWOZmJfXKcJ0tPRD4/kT9RZoKDsPw9ymON+T3ZZqRcFDTURwp9X8zXjfvRhaYxI9EfRM8FXu65lAXUbCECs+9CEs+hr1AjCtebmizigCzNlZZdybSzo8K65UEm9+h234fvzcj5xaRDaqXef0pOIYcevgL7wcZxH7Q6W25/t3zPMYwbjQem+8vWHlTyspkHez++Dh++kKWn3hqZpsY4GhGUQ1UspOEvi8c/FzL5e0ur0+3oAFPpap8L7opm0a4AWRQ0y44PBRfYvgC6NwPw/WRJgXheS/AMCOP1GiSq3skN0ZiaV+Hvc5xwhmfkcUeIhzaLqw9YR7V1Up0IH0/9TmmBDBxrTKUbo2Cr60Axu5OJqxjw0TWRvMqExO7BRqbIl5Nz/5Odha29Q8fvZkwsZg51fJREH/xuHYj/bVACIdyY6OfXwKyJm/H8ttfN3/7UqIzSof807L6vRArxYTuusFyciIVnIQgAR2mXjMblUdIMj6GgzU3bvIGShS7ccboil8vkM2UgA3yz+aVYuqYCAIMuR+2Xt/NNhx6GcUfzUHbfeuNeQW9tSDN7luT06di1EXB1coDL01vUc1vC4X8WHTzJ/NvEdDDFpf1zHSn+S2dvL36su9TueMuybcImTRUkvgwVLQ/56Kw2MMRu/qJfC5TKcUFVEfOf72kEB9+T7U7J/nS3NcJQZ5RUPHg/bH13qDxhtJawP3FD9mN1N+sKp1c08bsqc5STaa8svKJTLuoUTuQY+cNCjTrMo83nQRQf+yIizDwD51i1HucEcZa2w49QunDGSwTC99UdMgs4rWbj80Pj7fIVktWKBGtrU8xirevWsWsOwpmQ/R3fOXP9rStXmbfy5MJ5psko0h+JpB5f4iDjRNzIdiYV6igQEHtQkhb6CNInA6OTU8qQHkA8Ax2HyVwW5Wn5oYHb2Umgx2QT02/4/so3QZvLxPMecc/njzSjohID5vHHcFoN2zwZoIl/2Ucxuc1rCTNrCPKANtEMUXk/f/41ZruM+sHA05/9Gc8QFpmxmr0IpTzPMlvlpa/8TnrVR2tf/BUaBmsMz7jgixNM38uerk2Oh7zyLa5UEb1OCg8I2sNJ8mHHZYIGwR7wquH1PMFQuchm3Wxleu1YgBextbeBzwsNpEgQh/ZkCupVNw5mVJeqE4pmqGMmrEYE3GLfL05I71X5Ys+u8qNeXeXC+pJnN5CDxs44/fodiset4a+UDHJVCAQG8PjXXHKfyCgTY2b2oQQTz3hPcGglmgnnbZM7UL64tN+q9scMgdUk8WWpoz5VZJQrqSUgALEyApI0NiRMG6/AgQddhelwhiZhMA3o0qi03Y2lYvDcA1QTwY+4B0OacT7EP4vNlSIc+Fb90fme60NhGt9RZ6BZj7mFHHMv9qn4R6QqcF/u+ZMnSqo0k7kK/8yXJnYc0f2j1O41XHjtGmdifHv3kEMPkRaMuO+sdsVUVNdlgHCJ/gyKLxu0eV76pdEgRp/p16z/C/XCkPrIabSiayowgrCmI8oIJA1QbNBl9m6VRzkqZWi2zQRaLTy+iUNmrgs8ka/nSxPW1Oba26PEMs1oLIyBLWCuVwtmiQ0HfPhyOykPiLspB76VtOgl2WZayysNaUNjKvyHb43Ruq30Q0QSWKF4wCM80O6Ke5iCoy0ng0MZO7i2OzugCGaXnWVx+cckTpHGKEEwzEwW/VSwyYLaWb3dYJjopvZRo/U5cKqTDWXPMH7hWvZP4pVNaz9UgzoVBGh+xa7S2IquQPrZlMjLx4rgH+21DRcrDKELlQHCj6sWOuCPAoaZlSUt1nJeyRiai345kk6klbkVEb3W9ywxJ4n8UECATEB6n9BJYYtp0I/ZACb+jkrZc24mSASLgBIjwjOJc0ohgRdh8vbpqtW2G6pAvZSQ/khb7tVemQNL4Z5L8wAeekparc6ozwqDU/bNbW4GHEE5AvsHhneFUp4v5SmL0oBmaI5OurfkNGc1QYvxigqSiIQOQWWsKPMQpyRRSU6T67a+7ewLe/O27YWQvdQowIu04zUuyElX+fhdYUipmSB6gctiRxUYQwaAsQIFaTZmYLWSmb7NJH6DsbOYYgujstRbDVmE+7LXq2KTYHjAbHXDiFEgs3tof+NEE4Wb4GVWeqXoEyPhFZIX3rvY2YLN9q8b1cUdYvTnYgAETuuLVlvsKUC90i6b1Y2SoJaG4HUEjNzzRcG99dZ1fLRtxh3rluHkMvOZHp+PRvipFdRKCkilgm+dLA4G2QJ7SOraZurrBzNtEuoF+Pn7e+l70fdpPguIG27SHx5TbOda9RZQgMQJMbdHkW/T61li06tn/MfzPNI5MsBbp8yNuvdSqhD26BO0JSMaaXyKIUbbJpKVxHVAnpp0l/wKRlETxme7pVkzEkt6PIeTYhqiczAdIHZSQ/OzHJHjglwD0aisiGesXeGtWZsw0MmwAFU9fVBGc96t4JGCp/pGdQwAi4MBzdFrgCDzExEszmg9VI4xEEF4xIFRl8FrNGHdMFqLV0vz8hw9XW4rq+XzcRxTl/6RPpxmRG/2E9F1mj9joAIvUTkRBXwxDNhh5fzEmsf74qta1M98DARN5we3wb3RwHaaNdkyulvjqx0jrncL3/ElEZgXXEiCI5vLQmGP4YRinfcbdzfUS/+KH9oaR5fvCS92u6TPoY1Tu1JZpxsTe6xDUJYAIKgurwTRI2/D1wNzLP60X1rJBY8jjSQXRAAAA=" vertex="1" parent="1">
          <mxGeometry x="346.68" y="790" width="191.36" height="160" as="geometry" />
        </mxCell>
        <mxCell id="wvWwExwZX9Q3AOM2qn_e-57" value="" style="fillColor=#F6F6F6;strokeColor=none;shadow=0;gradientColor=none;fontSize=14;align=left;spacing=10;fontColor=#717171;9E9E9E;verticalAlign=top;spacingTop=-4;fontStyle=0;spacingLeft=40;html=1;" vertex="1" parent="1">
          <mxGeometry x="1070" y="100" width="810" height="590" as="geometry" />
        </mxCell>
        <mxCell id="wvWwExwZX9Q3AOM2qn_e-58" value="High&lt;br&gt;Throughput&lt;br&gt;Genome&lt;br&gt;Sequences&lt;br&gt;" style="rounded=1;absoluteArcSize=1;arcSize=2;html=1;strokeColor=none;gradientColor=none;shadow=0;dashed=0;fontSize=12;fontColor=#9E9E9E;align=left;verticalAlign=top;spacing=10;spacingTop=-4;fillColor=#F1F8E9;" vertex="1" parent="1">
          <mxGeometry x="1890" y="100" width="110" height="430" as="geometry" />
        </mxCell>
        <mxCell id="wvWwExwZX9Q3AOM2qn_e-59" value="" style="shape=image;verticalLabelPosition=bottom;verticalAlign=top;imageAspect=0;aspect=fixed;image=data:image/webp,UklGRooYAABXRUJQVlA4IH4YAABwuwCdASpWAvQBPpFEnkwlo60iIhFJCaASCWlu7ulSKOAQFbJMn/GerrxqiA+yzONPN/uD4s9kjcDw/0LlA/dP+7cY9E2Tz8+P8bzg+z+w6yC+s1/recz651HQRfO+UT3+PnAonv8fOBRPf4+cCie/x84FE9/j5wKJ7/HzgUT3+PnAonv8fOBRPf4+cCie/x84FE9/j5wKJcJYRIC3MNYoBpeVWtFXlx9YON6Cie/x84FE9/j5wKJhjL/mXi4f/jiiVvFUDciPOjHzkXRyRANF9U16qMusd97UjSA5ZpF5nZ/1BAipuOE5XCVCtVzrRKfarnWiU+1Hy+x+sNeKfl6lA7QnZjSKOTfQF5MVEZ6YrTuAUMe8oupkNxJIN+tURK4UtCRLdGX6jcdyYIQTRsp7X1vtVzrRKfarnWiU+xtmBiy8omEDcpDE4j7jr5VwlMT6PZ6gSVu3VKI7h+i1E65cFbteNpKMUfnl4IsJ7/HzgUT3+PnAol3Cl/uJSWwBory5yUOAyMlzuTlrK5Rhk+biAndQbWx2OvTNv//kwzsTUPhGVTaJU6daJT7Vc60Sn2q51ViDjRfVHBizDevAXbZZmNMjq/h1ntcK/CGfH2j5wKJ7/HzgUT38W6c/kv4uTxHed1/MIC+pxoI5i1Ws/NElB7Vc60Sn2q51olNkWtItGOMdzS6f4lieuMkuMWEiUeiO1rujfLo/aqbTHXnG76VZM0GWlolPtVzrRKfarkHUwmnUV9vCT/5uzfpnpOQIS73jGiSwEygRsMdh4MnTk07ncz+NETK4MFFarnWiU+1XIM3H+2hwfl9RfsTHKpm/tKLgmfBhpJbEpc4RWhHCuIju1L8XID+QD5wKJ7/HzgUT3+HkcH+5z0ih1DXINfnLTcc++YqROzW1Zv7EUPzvlE9/j5wKJ7/DnprS8iMh3K4Cz4+sVVL+XEha4kotbj9JJS+rDrYCK8Q80GCitVzrRKfarnVXI3oSiH3XRxXfKaElqmTVNUXOSlGziuUsECxP8syATPNBm4NpvhH7R84FE9/j5wKDmf9rqh1OXg+oPlFWVdGuPGr6wirmillCf6hnsocK3UPbukCFKiSn2q51olPtVyFHqz4VJg1I8whtAgJSGnt2DInuqHiJPchRgp0k0VCC3VlE9/j5wKJ7+WgLmYqMy4RC0GrQ6tp2YPhGLNQg3RYalzola6+n2NPicPHfKJ7/HzgUT38tJakeDA0X4dDFx15lnYaAB0ukKqW3d57VTv2ALasrQ75ho+cCie/x84FE8rr2l/jUploPhFSkfVYJD/TYGdOgOAaPhMzWuyQL3k5GM+QrODWfPzGmdp451olPtVzrQ7+xZMEpqu23n4H4H8bTBOB9/mNpr7CPahx6bbOocaLa6ODAU9sEb9TmTckp9qudaJT8icW0iCRr0kecr/iTHiBZxZE+SUrWOvn65L9tTg6vsCBj/t6QqcP/7j3rrfJoWr2IaoQSr5twxRIGaQCC/6M3+IhFMOErBUQ67WitXv2SMM8jl1N9kMrDVCY1k9ZRvFGF7a479ekc5BOhl3FbMtYGByIEAVl4ujLYqw1iFjGRlP2b4ScLD11bzP3yiidetFE6VeI9TcQUKFT4NUvr8kgy02BFPhK3Vw0Ykhf1zxIka9RR6FQBlp+4IDfeljSaJ/Xr2s6RbsPbfbANrJhiZ5U0hr4ftW/8DX3HRdY/Una8i1FOypPfpnuCleWNvuUbsbQRZP+YUJajIgHzgUUDx1fyr3z2jJZEo/CvtjIGqb6IQIxvy1TM+HBY9gvu061tCK/zo9m77vw9j5V2GW78ZiaNsxiFh+0VsJfA/ZFWXAPwXazyp40/9gAijfjP5SGXyKFs+SX0uOKY+sSLkf1imphq5SXuz4+hXbZbR84GuI4eCaXOYWtdbhmMF/Kam6PDVRPf4+eZGkmobxewVLKOlIA4FE9/j5wKJ7/In+ff3U5XpNk9/j5wKJ7/HzgUT4Cg+PoVu+tEp9qudaJT7VccAAD+/iLAAAAAAAeeli/f4gB6wjlme00Frqv6g6Po+TH96x9ZnuwdrarcOpNpASgjEtRlfCL6k79ehJVRazXgo3MidQvLq6bBsOoipsx3bZOH5nuBvo9/938F/9x+qelQviDc1i4ohfCxy2j2dq0AV/LBZ2Y9+aSu3LG8dtXgACe1uZFoUjbZxK6IRoTfywH/eT+w9SK2X+qfrq1+LWLnwgFOlmv+39FS5aLbmlsKi1sDjSEnGzegjjJZ5jKG+z6joU+utijtaGzmBgToIceMO/d3Aqe9b6sZX/LyQ9tlwV1hHwgxrPEdde+C1M0fJuwMSHsTgP0CRSbINYwqjAR1hTbcqweP2HtqI4Mru+Nrr2TFEGvAzs1V+uCGE+TqHV5psOdKq7UCOuHTM/XjyR7Z4IrSFIS207DTzYMBU+Hbpet+Jh+QJ+luajboKJbwdO4ATcGO7giXbYshzp1qFBsCwP2xzhd4JejQBGtxbuiR3veHXC1kO2d1lwhn8eeYrX8/TIWhCZUqHRoKarwEvqhU0hPjlFXMhXiaRDdQqkSq39+lNw4CT7pkJ9zZXTpgQN4RQXAOEOKy5zdXg9URqFb7j1AwFa3gvzQ4l0P9w0OttwsFfL37gtDEdxemegxTXC0GLH8TKhtmExD4vY3bLlCzDnIKZpYEM4GqpN4Tgdq4pxZGifAB0h89tjyl/SWuaLpoG4ONJmV8o9ivBetibUAlpEEjaKqwhuMy2kWB5qudJ1iSJGBKxl1qCJ16jr52eu+jm98d0ux+zd9MFjPW8UYTDluqLFJRRwKpykSy2vyUUwfIaKXwjeFgw8m7I4avg9/DSg6oDc2TgncD2ryTnvcz/1PLLdjIKrasLgPkUHoa1lPxlEwTyGIUy/dAz1u5AQu2KPDvnwzukADt6KLYiaLaJOVney6ax7VW/494I1OUmsMOwa8vh/1jw4Ah7NCnqIP6ARexDAL0AwmEQtO7UxUNtfnhg5e82fzzTiPrr3AnwIjvkh7piSDo4AJjkSUbSfMWf92w4vvr8gSCc+7I/jd+9Rxs4hmOL4kMgCtMt0UHJ8tSOSenu5pzd8WaTgv6sNn1Kh55KEp/y7+aicHSDcNg+9IEwivQG8bgisSlVnTvqL+BJ/CS9z30E4lhD5nB3tna9SOyoktZUgMTH1I8Bo3j8X7xxcw5O3rNgDEQ1wuf9fSUyPoGo7LL2d17+zoGcmu0fa+AcPOnnGRS49dnKR8L4ZRvk7yZ+I/DhX+Cidm1abSju/CmBQXZwiTJzI0sXxt68abKNMfRdjpla6yVxOSPXYahDL8O1JoKevEq3n7baWhGZ430oVsUz6vOkTlPA7nNMyGXXeLfQm+hob2aGkMrJpYa+DxH/urmuz4S7l0oaEGYUe+4w+v7v2THLA+k0HXicBKHnMO86welOETC0UjnecsF2XokUTBTi1cHoE1S6CCBCx00Gqxf3r1tgQA9QKpAYR3rSHRNFfmxKRHuQwfqGImDEJJ7OWtJiDuNLBj6NGw3N5KHtAldFc9sRpUm/bSjFSUBj9CH+8PYzvv84fvIXofWgZprEtPyz0rjr1KVJdYxbxNy85KAA4eeKXcr+7jXEBwbrNkIMQJDG/axtinIe8vuNdGldNPZJ/3ZcOX1TOjkEgK8tNJt+P2OlqUHPJkQwTYgrOCcTMAu1KYGVO09aPtbN8uvoN+BKoDXPdGX7jbKCr9EjrxI7D4oWS+OLeY63PCwClInVS0erutkA5dVysoFTQxoH9VUDcHmzU0ajtBGV1Om8zcc/Y8Y5ZYpHwmcqWsLmIe4JhnpudEpYUpt0H26QH7riqX/p1CoKWpHcNPn4r7eyEnMJ4OPdiqQDSP382ucAsdX8komo+bCFdJRo77wa2z6xwNeK9D6Kf4kmcLpLdL2Z4Vwar7769s19NnY60akw+u5kYDWDjmwLWLRnSwzQrQme5zWHHjXrHGGF9cGtOADn9/CX37eaEMVw5jZSN4SJ8Tw28pwiNRJ3m7DyBMnUR4hiZzZRL4Bi9HCKrOXCr9NgYenwbgG0AA1lpuzet+quo4vCPieNDgiXpWVMBbKt47VemANw1nAufG7hKxGfD6QsKy11joH2yvAfkUlVrUhNXcJb1oIK/bAkGaNA/Cn+/4CRN9k8xAwRMFHf9u4LHMbKpBRB2MW/xTmF4Jh59uUUP6gEsLiuTOaMrIRCPEEx515coBEpzRNzUAaHm4fZAXIgVssRprv9Ev4IjpGsQ6anLwLQSVkMJuBI5er4N7tuYS1e5rtWjWq8ItEqYEENDbamiYrqAxqsUHFclqw6Fpw+Pv3+m80epe+WSbMKHsuXazTKVChepQyno2oVIZ/LnD2pOI+UDar8vXW76sPoKxuL6PRVrpNcwcTx0qBKY7HZFohZGN+BK3qMwMs5g4NuUYWOKeL5k81vXRuzLx8NNkBuRwAyDaCEXXWeEpz8id0R9+CkU66vQ7Yy9qIbGHP22eqxKXyFJqJ7GGM06JiZXkWRAONZGb6jpVpOBxKCIZpjTlyZT3lMU3WtlO5Gy56hc9L1KKiQD20cp6CgnWwpYpU75vpDThwCahfDpjZDEF+MCxJ8Xh84KseOwL0c38UgVbhPVpM7SG8kpDBNwUMfQ6rgaCTm9R/KLlpYslNZgLuzeSTsN359oL4PWC5aoMD+2yeoJWAbQk1nnrMIBJiIaosk6YP/4TIPMGCNJ2n5kYwenWORYGO/eG/9EKHXfOrMLlOLcYCVKT9OQ+aAkjS2qgeRCZz4O9tIAWhRN1qqlQDg+Xa2m+8y8GV/RF4LIDDgzO9eLUb2R6h+x1j2jmjx1B2xapFqNym+SH2OnAbJ9DpcN8HOkGwOPVvzVljpqFQsj801NNMeHn+i90j+A54PoAAyjJWp3dBGDK98xb3ywO0yl+eSpau0rtRBgbOmcFQKoyjM5uxMhc8Cm5TjKvs17c8op21L7Xf0jgCVitDFFtjSmIacGbZTVycoDzyMe3a5Lvg8PaOxivR/5Pi3rTIy7ZQAD3wOn6f9qiWSCw687SvRab0vjjv8xFn1V5vRosmHK8g3ILbde6F1LxJbkxefD9hHNTLM/JR3fRIx8hykh2KWMp7yiCOVynMKxbX9CmN1w9UkUvPVQ7FFIIdSRvqTOdHNM3UiPXeREdXj8U6rFdkyurr/BDoXwRBhWE9bh/oYXmsJ4zdVgCI2Oudl3NsRRj7nKMkrRKvAnpreVW5eQaiHdDeyjs1L2y6zpHgeHDMNGmln8MsDFnvKH13fF2mqUQzYiupHH7zX4bbJYcGpHZoyEbQ0yvfsdHVGgkgpBIAhFCeNJ7PLrCngaG5qWB7uDeMzhqVDeTSUyBy8dbvt2cmcBvtZCIqRiVzGgKKWFiZ/EHxkgboUoRBkh4Rho7dS0j9JFEGkHv/2Fy+D1cviRA0+8k/rakZMfYe2CkrHCa7kBfgu2wF1KCm9xwpF7WPRlXK/vOCY+aJ70rK5LVOpSWLzvkp4zC+BuTiKE9TmVPa2GEm5LsvvnHIG8frhiN6dTuRqFP4LvY7vwQiS/7JZU4CeXq7rEnNiYLi2/JgI1MLm7IJlXgozYsh7DsANeLqMGu3/wbRWQbB3nNaf8gMOKnegwXF+gJ8Tb2QCR+vCpSEmWOZmJfXKcJ0tPRD4/kT9RZoKDsPw9ymON+T3ZZqRcFDTURwp9X8zXjfvRhaYxI9EfRM8FXu65lAXUbCECs+9CEs+hr1AjCtebmizigCzNlZZdybSzo8K65UEm9+h234fvzcj5xaRDaqXef0pOIYcevgL7wcZxH7Q6W25/t3zPMYwbjQem+8vWHlTyspkHez++Dh++kKWn3hqZpsY4GhGUQ1UspOEvi8c/FzL5e0ur0+3oAFPpap8L7opm0a4AWRQ0y44PBRfYvgC6NwPw/WRJgXheS/AMCOP1GiSq3skN0ZiaV+Hvc5xwhmfkcUeIhzaLqw9YR7V1Up0IH0/9TmmBDBxrTKUbo2Cr60Axu5OJqxjw0TWRvMqExO7BRqbIl5Nz/5Odha29Q8fvZkwsZg51fJREH/xuHYj/bVACIdyY6OfXwKyJm/H8ttfN3/7UqIzSof807L6vRArxYTuusFyciIVnIQgAR2mXjMblUdIMj6GgzU3bvIGShS7ccboil8vkM2UgA3yz+aVYuqYCAIMuR+2Xt/NNhx6GcUfzUHbfeuNeQW9tSDN7luT06di1EXB1coDL01vUc1vC4X8WHTzJ/NvEdDDFpf1zHSn+S2dvL36su9TueMuybcImTRUkvgwVLQ/56Kw2MMRu/qJfC5TKcUFVEfOf72kEB9+T7U7J/nS3NcJQZ5RUPHg/bH13qDxhtJawP3FD9mN1N+sKp1c08bsqc5STaa8svKJTLuoUTuQY+cNCjTrMo83nQRQf+yIizDwD51i1HucEcZa2w49QunDGSwTC99UdMgs4rWbj80Pj7fIVktWKBGtrU8xirevWsWsOwpmQ/R3fOXP9rStXmbfy5MJ5psko0h+JpB5f4iDjRNzIdiYV6igQEHtQkhb6CNInA6OTU8qQHkA8Ax2HyVwW5Wn5oYHb2Umgx2QT02/4/so3QZvLxPMecc/njzSjohID5vHHcFoN2zwZoIl/2Ucxuc1rCTNrCPKANtEMUXk/f/41ZruM+sHA05/9Gc8QFpmxmr0IpTzPMlvlpa/8TnrVR2tf/BUaBmsMz7jgixNM38uerk2Oh7zyLa5UEb1OCg8I2sNJ8mHHZYIGwR7wquH1PMFQuchm3Wxleu1YgBextbeBzwsNpEgQh/ZkCupVNw5mVJeqE4pmqGMmrEYE3GLfL05I71X5Ys+u8qNeXeXC+pJnN5CDxs44/fodiset4a+UDHJVCAQG8PjXXHKfyCgTY2b2oQQTz3hPcGglmgnnbZM7UL64tN+q9scMgdUk8WWpoz5VZJQrqSUgALEyApI0NiRMG6/AgQddhelwhiZhMA3o0qi03Y2lYvDcA1QTwY+4B0OacT7EP4vNlSIc+Fb90fme60NhGt9RZ6BZj7mFHHMv9qn4R6QqcF/u+ZMnSqo0k7kK/8yXJnYc0f2j1O41XHjtGmdifHv3kEMPkRaMuO+sdsVUVNdlgHCJ/gyKLxu0eV76pdEgRp/p16z/C/XCkPrIabSiayowgrCmI8oIJA1QbNBl9m6VRzkqZWi2zQRaLTy+iUNmrgs8ka/nSxPW1Oba26PEMs1oLIyBLWCuVwtmiQ0HfPhyOykPiLspB76VtOgl2WZayysNaUNjKvyHb43Ruq30Q0QSWKF4wCM80O6Ke5iCoy0ng0MZO7i2OzugCGaXnWVx+cckTpHGKEEwzEwW/VSwyYLaWb3dYJjopvZRo/U5cKqTDWXPMH7hWvZP4pVNaz9UgzoVBGh+xa7S2IquQPrZlMjLx4rgH+21DRcrDKELlQHCj6sWOuCPAoaZlSUt1nJeyRiai345kk6klbkVEb3W9ywxJ4n8UECATEB6n9BJYYtp0I/ZACb+jkrZc24mSASLgBIjwjOJc0ohgRdh8vbpqtW2G6pAvZSQ/khb7tVemQNL4Z5L8wAeekparc6ozwqDU/bNbW4GHEE5AvsHhneFUp4v5SmL0oBmaI5OurfkNGc1QYvxigqSiIQOQWWsKPMQpyRRSU6T67a+7ewLe/O27YWQvdQowIu04zUuyElX+fhdYUipmSB6gctiRxUYQwaAsQIFaTZmYLWSmb7NJH6DsbOYYgujstRbDVmE+7LXq2KTYHjAbHXDiFEgs3tof+NEE4Wb4GVWeqXoEyPhFZIX3rvY2YLN9q8b1cUdYvTnYgAETuuLVlvsKUC90i6b1Y2SoJaG4HUEjNzzRcG99dZ1fLRtxh3rluHkMvOZHp+PRvipFdRKCkilgm+dLA4G2QJ7SOraZurrBzNtEuoF+Pn7e+l70fdpPguIG27SHx5TbOda9RZQgMQJMbdHkW/T61li06tn/MfzPNI5MsBbp8yNuvdSqhD26BO0JSMaaXyKIUbbJpKVxHVAnpp0l/wKRlETxme7pVkzEkt6PIeTYhqiczAdIHZSQ/OzHJHjglwD0aisiGesXeGtWZsw0MmwAFU9fVBGc96t4JGCp/pGdQwAi4MBzdFrgCDzExEszmg9VI4xEEF4xIFRl8FrNGHdMFqLV0vz8hw9XW4rq+XzcRxTl/6RPpxmRG/2E9F1mj9joAIvUTkRBXwxDNhh5fzEmsf74qta1M98DARN5we3wb3RwHaaNdkyulvjqx0jrncL3/ElEZgXXEiCI5vLQmGP4YRinfcbdzfUS/+KH9oaR5fvCS92u6TPoY1Tu1JZpxsTe6xDUJYAIKgurwTRI2/D1wNzLP60X1rJBY8jjSQXRAAAA=" vertex="1" parent="1">
          <mxGeometry x="1500" y="760" width="191.36" height="160" as="geometry" />
        </mxCell>
        <mxCell id="wvWwExwZX9Q3AOM2qn_e-60" value="Scientist" style="rounded=1;absoluteArcSize=1;arcSize=2;html=1;strokeColor=none;gradientColor=none;shadow=0;dashed=0;fontSize=12;fontColor=#9E9E9E;align=left;verticalAlign=top;spacing=10;spacingTop=-4;fillColor=#F3E5F5;" vertex="1" parent="1">
          <mxGeometry x="1890" y="560" width="110" height="120" as="geometry" />
        </mxCell>
        <mxCell id="wvWwExwZX9Q3AOM2qn_e-61" value="" style="shape=image;verticalLabelPosition=bottom;verticalAlign=top;imageAspect=0;aspect=fixed;image=data:image/webp,UklGRooYAABXRUJQVlA4IH4YAABwuwCdASpWAvQBPpFEnkwlo60iIhFJCaASCWlu7ulSKOAQFbJMn/GerrxqiA+yzONPN/uD4s9kjcDw/0LlA/dP+7cY9E2Tz8+P8bzg+z+w6yC+s1/recz651HQRfO+UT3+PnAonv8fOBRPf4+cCie/x84FE9/j5wKJ7/HzgUT3+PnAonv8fOBRPf4+cCie/x84FE9/j5wKJcJYRIC3MNYoBpeVWtFXlx9YON6Cie/x84FE9/j5wKJhjL/mXi4f/jiiVvFUDciPOjHzkXRyRANF9U16qMusd97UjSA5ZpF5nZ/1BAipuOE5XCVCtVzrRKfarnWiU+1Hy+x+sNeKfl6lA7QnZjSKOTfQF5MVEZ6YrTuAUMe8oupkNxJIN+tURK4UtCRLdGX6jcdyYIQTRsp7X1vtVzrRKfarnWiU+xtmBiy8omEDcpDE4j7jr5VwlMT6PZ6gSVu3VKI7h+i1E65cFbteNpKMUfnl4IsJ7/HzgUT3+PnAol3Cl/uJSWwBory5yUOAyMlzuTlrK5Rhk+biAndQbWx2OvTNv//kwzsTUPhGVTaJU6daJT7Vc60Sn2q51ViDjRfVHBizDevAXbZZmNMjq/h1ntcK/CGfH2j5wKJ7/HzgUT38W6c/kv4uTxHed1/MIC+pxoI5i1Ws/NElB7Vc60Sn2q51olNkWtItGOMdzS6f4lieuMkuMWEiUeiO1rujfLo/aqbTHXnG76VZM0GWlolPtVzrRKfarkHUwmnUV9vCT/5uzfpnpOQIS73jGiSwEygRsMdh4MnTk07ncz+NETK4MFFarnWiU+1XIM3H+2hwfl9RfsTHKpm/tKLgmfBhpJbEpc4RWhHCuIju1L8XID+QD5wKJ7/HzgUT3+HkcH+5z0ih1DXINfnLTcc++YqROzW1Zv7EUPzvlE9/j5wKJ7/DnprS8iMh3K4Cz4+sVVL+XEha4kotbj9JJS+rDrYCK8Q80GCitVzrRKfarnVXI3oSiH3XRxXfKaElqmTVNUXOSlGziuUsECxP8syATPNBm4NpvhH7R84FE9/j5wKDmf9rqh1OXg+oPlFWVdGuPGr6wirmillCf6hnsocK3UPbukCFKiSn2q51olPtVyFHqz4VJg1I8whtAgJSGnt2DInuqHiJPchRgp0k0VCC3VlE9/j5wKJ7+WgLmYqMy4RC0GrQ6tp2YPhGLNQg3RYalzola6+n2NPicPHfKJ7/HzgUT38tJakeDA0X4dDFx15lnYaAB0ukKqW3d57VTv2ALasrQ75ho+cCie/x84FE8rr2l/jUploPhFSkfVYJD/TYGdOgOAaPhMzWuyQL3k5GM+QrODWfPzGmdp451olPtVzrQ7+xZMEpqu23n4H4H8bTBOB9/mNpr7CPahx6bbOocaLa6ODAU9sEb9TmTckp9qudaJT8icW0iCRr0kecr/iTHiBZxZE+SUrWOvn65L9tTg6vsCBj/t6QqcP/7j3rrfJoWr2IaoQSr5twxRIGaQCC/6M3+IhFMOErBUQ67WitXv2SMM8jl1N9kMrDVCY1k9ZRvFGF7a479ekc5BOhl3FbMtYGByIEAVl4ujLYqw1iFjGRlP2b4ScLD11bzP3yiidetFE6VeI9TcQUKFT4NUvr8kgy02BFPhK3Vw0Ykhf1zxIka9RR6FQBlp+4IDfeljSaJ/Xr2s6RbsPbfbANrJhiZ5U0hr4ftW/8DX3HRdY/Una8i1FOypPfpnuCleWNvuUbsbQRZP+YUJajIgHzgUUDx1fyr3z2jJZEo/CvtjIGqb6IQIxvy1TM+HBY9gvu061tCK/zo9m77vw9j5V2GW78ZiaNsxiFh+0VsJfA/ZFWXAPwXazyp40/9gAijfjP5SGXyKFs+SX0uOKY+sSLkf1imphq5SXuz4+hXbZbR84GuI4eCaXOYWtdbhmMF/Kam6PDVRPf4+eZGkmobxewVLKOlIA4FE9/j5wKJ7/In+ff3U5XpNk9/j5wKJ7/HzgUT4Cg+PoVu+tEp9qudaJT7VccAAD+/iLAAAAAAAeeli/f4gB6wjlme00Frqv6g6Po+TH96x9ZnuwdrarcOpNpASgjEtRlfCL6k79ehJVRazXgo3MidQvLq6bBsOoipsx3bZOH5nuBvo9/938F/9x+qelQviDc1i4ohfCxy2j2dq0AV/LBZ2Y9+aSu3LG8dtXgACe1uZFoUjbZxK6IRoTfywH/eT+w9SK2X+qfrq1+LWLnwgFOlmv+39FS5aLbmlsKi1sDjSEnGzegjjJZ5jKG+z6joU+utijtaGzmBgToIceMO/d3Aqe9b6sZX/LyQ9tlwV1hHwgxrPEdde+C1M0fJuwMSHsTgP0CRSbINYwqjAR1hTbcqweP2HtqI4Mru+Nrr2TFEGvAzs1V+uCGE+TqHV5psOdKq7UCOuHTM/XjyR7Z4IrSFIS207DTzYMBU+Hbpet+Jh+QJ+luajboKJbwdO4ATcGO7giXbYshzp1qFBsCwP2xzhd4JejQBGtxbuiR3veHXC1kO2d1lwhn8eeYrX8/TIWhCZUqHRoKarwEvqhU0hPjlFXMhXiaRDdQqkSq39+lNw4CT7pkJ9zZXTpgQN4RQXAOEOKy5zdXg9URqFb7j1AwFa3gvzQ4l0P9w0OttwsFfL37gtDEdxemegxTXC0GLH8TKhtmExD4vY3bLlCzDnIKZpYEM4GqpN4Tgdq4pxZGifAB0h89tjyl/SWuaLpoG4ONJmV8o9ivBetibUAlpEEjaKqwhuMy2kWB5qudJ1iSJGBKxl1qCJ16jr52eu+jm98d0ux+zd9MFjPW8UYTDluqLFJRRwKpykSy2vyUUwfIaKXwjeFgw8m7I4avg9/DSg6oDc2TgncD2ryTnvcz/1PLLdjIKrasLgPkUHoa1lPxlEwTyGIUy/dAz1u5AQu2KPDvnwzukADt6KLYiaLaJOVney6ax7VW/494I1OUmsMOwa8vh/1jw4Ah7NCnqIP6ARexDAL0AwmEQtO7UxUNtfnhg5e82fzzTiPrr3AnwIjvkh7piSDo4AJjkSUbSfMWf92w4vvr8gSCc+7I/jd+9Rxs4hmOL4kMgCtMt0UHJ8tSOSenu5pzd8WaTgv6sNn1Kh55KEp/y7+aicHSDcNg+9IEwivQG8bgisSlVnTvqL+BJ/CS9z30E4lhD5nB3tna9SOyoktZUgMTH1I8Bo3j8X7xxcw5O3rNgDEQ1wuf9fSUyPoGo7LL2d17+zoGcmu0fa+AcPOnnGRS49dnKR8L4ZRvk7yZ+I/DhX+Cidm1abSju/CmBQXZwiTJzI0sXxt68abKNMfRdjpla6yVxOSPXYahDL8O1JoKevEq3n7baWhGZ430oVsUz6vOkTlPA7nNMyGXXeLfQm+hob2aGkMrJpYa+DxH/urmuz4S7l0oaEGYUe+4w+v7v2THLA+k0HXicBKHnMO86welOETC0UjnecsF2XokUTBTi1cHoE1S6CCBCx00Gqxf3r1tgQA9QKpAYR3rSHRNFfmxKRHuQwfqGImDEJJ7OWtJiDuNLBj6NGw3N5KHtAldFc9sRpUm/bSjFSUBj9CH+8PYzvv84fvIXofWgZprEtPyz0rjr1KVJdYxbxNy85KAA4eeKXcr+7jXEBwbrNkIMQJDG/axtinIe8vuNdGldNPZJ/3ZcOX1TOjkEgK8tNJt+P2OlqUHPJkQwTYgrOCcTMAu1KYGVO09aPtbN8uvoN+BKoDXPdGX7jbKCr9EjrxI7D4oWS+OLeY63PCwClInVS0erutkA5dVysoFTQxoH9VUDcHmzU0ajtBGV1Om8zcc/Y8Y5ZYpHwmcqWsLmIe4JhnpudEpYUpt0H26QH7riqX/p1CoKWpHcNPn4r7eyEnMJ4OPdiqQDSP382ucAsdX8komo+bCFdJRo77wa2z6xwNeK9D6Kf4kmcLpLdL2Z4Vwar7769s19NnY60akw+u5kYDWDjmwLWLRnSwzQrQme5zWHHjXrHGGF9cGtOADn9/CX37eaEMVw5jZSN4SJ8Tw28pwiNRJ3m7DyBMnUR4hiZzZRL4Bi9HCKrOXCr9NgYenwbgG0AA1lpuzet+quo4vCPieNDgiXpWVMBbKt47VemANw1nAufG7hKxGfD6QsKy11joH2yvAfkUlVrUhNXcJb1oIK/bAkGaNA/Cn+/4CRN9k8xAwRMFHf9u4LHMbKpBRB2MW/xTmF4Jh59uUUP6gEsLiuTOaMrIRCPEEx515coBEpzRNzUAaHm4fZAXIgVssRprv9Ev4IjpGsQ6anLwLQSVkMJuBI5er4N7tuYS1e5rtWjWq8ItEqYEENDbamiYrqAxqsUHFclqw6Fpw+Pv3+m80epe+WSbMKHsuXazTKVChepQyno2oVIZ/LnD2pOI+UDar8vXW76sPoKxuL6PRVrpNcwcTx0qBKY7HZFohZGN+BK3qMwMs5g4NuUYWOKeL5k81vXRuzLx8NNkBuRwAyDaCEXXWeEpz8id0R9+CkU66vQ7Yy9qIbGHP22eqxKXyFJqJ7GGM06JiZXkWRAONZGb6jpVpOBxKCIZpjTlyZT3lMU3WtlO5Gy56hc9L1KKiQD20cp6CgnWwpYpU75vpDThwCahfDpjZDEF+MCxJ8Xh84KseOwL0c38UgVbhPVpM7SG8kpDBNwUMfQ6rgaCTm9R/KLlpYslNZgLuzeSTsN359oL4PWC5aoMD+2yeoJWAbQk1nnrMIBJiIaosk6YP/4TIPMGCNJ2n5kYwenWORYGO/eG/9EKHXfOrMLlOLcYCVKT9OQ+aAkjS2qgeRCZz4O9tIAWhRN1qqlQDg+Xa2m+8y8GV/RF4LIDDgzO9eLUb2R6h+x1j2jmjx1B2xapFqNym+SH2OnAbJ9DpcN8HOkGwOPVvzVljpqFQsj801NNMeHn+i90j+A54PoAAyjJWp3dBGDK98xb3ywO0yl+eSpau0rtRBgbOmcFQKoyjM5uxMhc8Cm5TjKvs17c8op21L7Xf0jgCVitDFFtjSmIacGbZTVycoDzyMe3a5Lvg8PaOxivR/5Pi3rTIy7ZQAD3wOn6f9qiWSCw687SvRab0vjjv8xFn1V5vRosmHK8g3ILbde6F1LxJbkxefD9hHNTLM/JR3fRIx8hykh2KWMp7yiCOVynMKxbX9CmN1w9UkUvPVQ7FFIIdSRvqTOdHNM3UiPXeREdXj8U6rFdkyurr/BDoXwRBhWE9bh/oYXmsJ4zdVgCI2Oudl3NsRRj7nKMkrRKvAnpreVW5eQaiHdDeyjs1L2y6zpHgeHDMNGmln8MsDFnvKH13fF2mqUQzYiupHH7zX4bbJYcGpHZoyEbQ0yvfsdHVGgkgpBIAhFCeNJ7PLrCngaG5qWB7uDeMzhqVDeTSUyBy8dbvt2cmcBvtZCIqRiVzGgKKWFiZ/EHxkgboUoRBkh4Rho7dS0j9JFEGkHv/2Fy+D1cviRA0+8k/rakZMfYe2CkrHCa7kBfgu2wF1KCm9xwpF7WPRlXK/vOCY+aJ70rK5LVOpSWLzvkp4zC+BuTiKE9TmVPa2GEm5LsvvnHIG8frhiN6dTuRqFP4LvY7vwQiS/7JZU4CeXq7rEnNiYLi2/JgI1MLm7IJlXgozYsh7DsANeLqMGu3/wbRWQbB3nNaf8gMOKnegwXF+gJ8Tb2QCR+vCpSEmWOZmJfXKcJ0tPRD4/kT9RZoKDsPw9ymON+T3ZZqRcFDTURwp9X8zXjfvRhaYxI9EfRM8FXu65lAXUbCECs+9CEs+hr1AjCtebmizigCzNlZZdybSzo8K65UEm9+h234fvzcj5xaRDaqXef0pOIYcevgL7wcZxH7Q6W25/t3zPMYwbjQem+8vWHlTyspkHez++Dh++kKWn3hqZpsY4GhGUQ1UspOEvi8c/FzL5e0ur0+3oAFPpap8L7opm0a4AWRQ0y44PBRfYvgC6NwPw/WRJgXheS/AMCOP1GiSq3skN0ZiaV+Hvc5xwhmfkcUeIhzaLqw9YR7V1Up0IH0/9TmmBDBxrTKUbo2Cr60Axu5OJqxjw0TWRvMqExO7BRqbIl5Nz/5Odha29Q8fvZkwsZg51fJREH/xuHYj/bVACIdyY6OfXwKyJm/H8ttfN3/7UqIzSof807L6vRArxYTuusFyciIVnIQgAR2mXjMblUdIMj6GgzU3bvIGShS7ccboil8vkM2UgA3yz+aVYuqYCAIMuR+2Xt/NNhx6GcUfzUHbfeuNeQW9tSDN7luT06di1EXB1coDL01vUc1vC4X8WHTzJ/NvEdDDFpf1zHSn+S2dvL36su9TueMuybcImTRUkvgwVLQ/56Kw2MMRu/qJfC5TKcUFVEfOf72kEB9+T7U7J/nS3NcJQZ5RUPHg/bH13qDxhtJawP3FD9mN1N+sKp1c08bsqc5STaa8svKJTLuoUTuQY+cNCjTrMo83nQRQf+yIizDwD51i1HucEcZa2w49QunDGSwTC99UdMgs4rWbj80Pj7fIVktWKBGtrU8xirevWsWsOwpmQ/R3fOXP9rStXmbfy5MJ5psko0h+JpB5f4iDjRNzIdiYV6igQEHtQkhb6CNInA6OTU8qQHkA8Ax2HyVwW5Wn5oYHb2Umgx2QT02/4/so3QZvLxPMecc/njzSjohID5vHHcFoN2zwZoIl/2Ucxuc1rCTNrCPKANtEMUXk/f/41ZruM+sHA05/9Gc8QFpmxmr0IpTzPMlvlpa/8TnrVR2tf/BUaBmsMz7jgixNM38uerk2Oh7zyLa5UEb1OCg8I2sNJ8mHHZYIGwR7wquH1PMFQuchm3Wxleu1YgBextbeBzwsNpEgQh/ZkCupVNw5mVJeqE4pmqGMmrEYE3GLfL05I71X5Ys+u8qNeXeXC+pJnN5CDxs44/fodiset4a+UDHJVCAQG8PjXXHKfyCgTY2b2oQQTz3hPcGglmgnnbZM7UL64tN+q9scMgdUk8WWpoz5VZJQrqSUgALEyApI0NiRMG6/AgQddhelwhiZhMA3o0qi03Y2lYvDcA1QTwY+4B0OacT7EP4vNlSIc+Fb90fme60NhGt9RZ6BZj7mFHHMv9qn4R6QqcF/u+ZMnSqo0k7kK/8yXJnYc0f2j1O41XHjtGmdifHv3kEMPkRaMuO+sdsVUVNdlgHCJ/gyKLxu0eV76pdEgRp/p16z/C/XCkPrIabSiayowgrCmI8oIJA1QbNBl9m6VRzkqZWi2zQRaLTy+iUNmrgs8ka/nSxPW1Oba26PEMs1oLIyBLWCuVwtmiQ0HfPhyOykPiLspB76VtOgl2WZayysNaUNjKvyHb43Ruq30Q0QSWKF4wCM80O6Ke5iCoy0ng0MZO7i2OzugCGaXnWVx+cckTpHGKEEwzEwW/VSwyYLaWb3dYJjopvZRo/U5cKqTDWXPMH7hWvZP4pVNaz9UgzoVBGh+xa7S2IquQPrZlMjLx4rgH+21DRcrDKELlQHCj6sWOuCPAoaZlSUt1nJeyRiai345kk6klbkVEb3W9ywxJ4n8UECATEB6n9BJYYtp0I/ZACb+jkrZc24mSASLgBIjwjOJc0ohgRdh8vbpqtW2G6pAvZSQ/khb7tVemQNL4Z5L8wAeekparc6ozwqDU/bNbW4GHEE5AvsHhneFUp4v5SmL0oBmaI5OurfkNGc1QYvxigqSiIQOQWWsKPMQpyRRSU6T67a+7ewLe/O27YWQvdQowIu04zUuyElX+fhdYUipmSB6gctiRxUYQwaAsQIFaTZmYLWSmb7NJH6DsbOYYgujstRbDVmE+7LXq2KTYHjAbHXDiFEgs3tof+NEE4Wb4GVWeqXoEyPhFZIX3rvY2YLN9q8b1cUdYvTnYgAETuuLVlvsKUC90i6b1Y2SoJaG4HUEjNzzRcG99dZ1fLRtxh3rluHkMvOZHp+PRvipFdRKCkilgm+dLA4G2QJ7SOraZurrBzNtEuoF+Pn7e+l70fdpPguIG27SHx5TbOda9RZQgMQJMbdHkW/T61li06tn/MfzPNI5MsBbp8yNuvdSqhD26BO0JSMaaXyKIUbbJpKVxHVAnpp0l/wKRlETxme7pVkzEkt6PIeTYhqiczAdIHZSQ/OzHJHjglwD0aisiGesXeGtWZsw0MmwAFU9fVBGc96t4JGCp/pGdQwAi4MBzdFrgCDzExEszmg9VI4xEEF4xIFRl8FrNGHdMFqLV0vz8hw9XW4rq+XzcRxTl/6RPpxmRG/2E9F1mj9joAIvUTkRBXwxDNhh5fzEmsf74qta1M98DARN5we3wb3RwHaaNdkyulvjqx0jrncL3/ElEZgXXEiCI5vLQmGP4YRinfcbdzfUS/+KH9oaR5fvCS92u6TPoY1Tu1JZpxsTe6xDUJYAIKgurwTRI2/D1wNzLP60X1rJBY8jjSQXRAAAA=" vertex="1" parent="1">
          <mxGeometry x="489" y="790" width="191.36" height="160" as="geometry" />
        </mxCell>
        <mxCell id="wvWwExwZX9Q3AOM2qn_e-62" value="" style="shape=image;verticalLabelPosition=bottom;verticalAlign=top;imageAspect=0;aspect=fixed;image=data:image/webp,UklGRooYAABXRUJQVlA4IH4YAABwuwCdASpWAvQBPpFEnkwlo60iIhFJCaASCWlu7ulSKOAQFbJMn/GerrxqiA+yzONPN/uD4s9kjcDw/0LlA/dP+7cY9E2Tz8+P8bzg+z+w6yC+s1/recz651HQRfO+UT3+PnAonv8fOBRPf4+cCie/x84FE9/j5wKJ7/HzgUT3+PnAonv8fOBRPf4+cCie/x84FE9/j5wKJcJYRIC3MNYoBpeVWtFXlx9YON6Cie/x84FE9/j5wKJhjL/mXi4f/jiiVvFUDciPOjHzkXRyRANF9U16qMusd97UjSA5ZpF5nZ/1BAipuOE5XCVCtVzrRKfarnWiU+1Hy+x+sNeKfl6lA7QnZjSKOTfQF5MVEZ6YrTuAUMe8oupkNxJIN+tURK4UtCRLdGX6jcdyYIQTRsp7X1vtVzrRKfarnWiU+xtmBiy8omEDcpDE4j7jr5VwlMT6PZ6gSVu3VKI7h+i1E65cFbteNpKMUfnl4IsJ7/HzgUT3+PnAol3Cl/uJSWwBory5yUOAyMlzuTlrK5Rhk+biAndQbWx2OvTNv//kwzsTUPhGVTaJU6daJT7Vc60Sn2q51ViDjRfVHBizDevAXbZZmNMjq/h1ntcK/CGfH2j5wKJ7/HzgUT38W6c/kv4uTxHed1/MIC+pxoI5i1Ws/NElB7Vc60Sn2q51olNkWtItGOMdzS6f4lieuMkuMWEiUeiO1rujfLo/aqbTHXnG76VZM0GWlolPtVzrRKfarkHUwmnUV9vCT/5uzfpnpOQIS73jGiSwEygRsMdh4MnTk07ncz+NETK4MFFarnWiU+1XIM3H+2hwfl9RfsTHKpm/tKLgmfBhpJbEpc4RWhHCuIju1L8XID+QD5wKJ7/HzgUT3+HkcH+5z0ih1DXINfnLTcc++YqROzW1Zv7EUPzvlE9/j5wKJ7/DnprS8iMh3K4Cz4+sVVL+XEha4kotbj9JJS+rDrYCK8Q80GCitVzrRKfarnVXI3oSiH3XRxXfKaElqmTVNUXOSlGziuUsECxP8syATPNBm4NpvhH7R84FE9/j5wKDmf9rqh1OXg+oPlFWVdGuPGr6wirmillCf6hnsocK3UPbukCFKiSn2q51olPtVyFHqz4VJg1I8whtAgJSGnt2DInuqHiJPchRgp0k0VCC3VlE9/j5wKJ7+WgLmYqMy4RC0GrQ6tp2YPhGLNQg3RYalzola6+n2NPicPHfKJ7/HzgUT38tJakeDA0X4dDFx15lnYaAB0ukKqW3d57VTv2ALasrQ75ho+cCie/x84FE8rr2l/jUploPhFSkfVYJD/TYGdOgOAaPhMzWuyQL3k5GM+QrODWfPzGmdp451olPtVzrQ7+xZMEpqu23n4H4H8bTBOB9/mNpr7CPahx6bbOocaLa6ODAU9sEb9TmTckp9qudaJT8icW0iCRr0kecr/iTHiBZxZE+SUrWOvn65L9tTg6vsCBj/t6QqcP/7j3rrfJoWr2IaoQSr5twxRIGaQCC/6M3+IhFMOErBUQ67WitXv2SMM8jl1N9kMrDVCY1k9ZRvFGF7a479ekc5BOhl3FbMtYGByIEAVl4ujLYqw1iFjGRlP2b4ScLD11bzP3yiidetFE6VeI9TcQUKFT4NUvr8kgy02BFPhK3Vw0Ykhf1zxIka9RR6FQBlp+4IDfeljSaJ/Xr2s6RbsPbfbANrJhiZ5U0hr4ftW/8DX3HRdY/Una8i1FOypPfpnuCleWNvuUbsbQRZP+YUJajIgHzgUUDx1fyr3z2jJZEo/CvtjIGqb6IQIxvy1TM+HBY9gvu061tCK/zo9m77vw9j5V2GW78ZiaNsxiFh+0VsJfA/ZFWXAPwXazyp40/9gAijfjP5SGXyKFs+SX0uOKY+sSLkf1imphq5SXuz4+hXbZbR84GuI4eCaXOYWtdbhmMF/Kam6PDVRPf4+eZGkmobxewVLKOlIA4FE9/j5wKJ7/In+ff3U5XpNk9/j5wKJ7/HzgUT4Cg+PoVu+tEp9qudaJT7VccAAD+/iLAAAAAAAeeli/f4gB6wjlme00Frqv6g6Po+TH96x9ZnuwdrarcOpNpASgjEtRlfCL6k79ehJVRazXgo3MidQvLq6bBsOoipsx3bZOH5nuBvo9/938F/9x+qelQviDc1i4ohfCxy2j2dq0AV/LBZ2Y9+aSu3LG8dtXgACe1uZFoUjbZxK6IRoTfywH/eT+w9SK2X+qfrq1+LWLnwgFOlmv+39FS5aLbmlsKi1sDjSEnGzegjjJZ5jKG+z6joU+utijtaGzmBgToIceMO/d3Aqe9b6sZX/LyQ9tlwV1hHwgxrPEdde+C1M0fJuwMSHsTgP0CRSbINYwqjAR1hTbcqweP2HtqI4Mru+Nrr2TFEGvAzs1V+uCGE+TqHV5psOdKq7UCOuHTM/XjyR7Z4IrSFIS207DTzYMBU+Hbpet+Jh+QJ+luajboKJbwdO4ATcGO7giXbYshzp1qFBsCwP2xzhd4JejQBGtxbuiR3veHXC1kO2d1lwhn8eeYrX8/TIWhCZUqHRoKarwEvqhU0hPjlFXMhXiaRDdQqkSq39+lNw4CT7pkJ9zZXTpgQN4RQXAOEOKy5zdXg9URqFb7j1AwFa3gvzQ4l0P9w0OttwsFfL37gtDEdxemegxTXC0GLH8TKhtmExD4vY3bLlCzDnIKZpYEM4GqpN4Tgdq4pxZGifAB0h89tjyl/SWuaLpoG4ONJmV8o9ivBetibUAlpEEjaKqwhuMy2kWB5qudJ1iSJGBKxl1qCJ16jr52eu+jm98d0ux+zd9MFjPW8UYTDluqLFJRRwKpykSy2vyUUwfIaKXwjeFgw8m7I4avg9/DSg6oDc2TgncD2ryTnvcz/1PLLdjIKrasLgPkUHoa1lPxlEwTyGIUy/dAz1u5AQu2KPDvnwzukADt6KLYiaLaJOVney6ax7VW/494I1OUmsMOwa8vh/1jw4Ah7NCnqIP6ARexDAL0AwmEQtO7UxUNtfnhg5e82fzzTiPrr3AnwIjvkh7piSDo4AJjkSUbSfMWf92w4vvr8gSCc+7I/jd+9Rxs4hmOL4kMgCtMt0UHJ8tSOSenu5pzd8WaTgv6sNn1Kh55KEp/y7+aicHSDcNg+9IEwivQG8bgisSlVnTvqL+BJ/CS9z30E4lhD5nB3tna9SOyoktZUgMTH1I8Bo3j8X7xxcw5O3rNgDEQ1wuf9fSUyPoGo7LL2d17+zoGcmu0fa+AcPOnnGRS49dnKR8L4ZRvk7yZ+I/DhX+Cidm1abSju/CmBQXZwiTJzI0sXxt68abKNMfRdjpla6yVxOSPXYahDL8O1JoKevEq3n7baWhGZ430oVsUz6vOkTlPA7nNMyGXXeLfQm+hob2aGkMrJpYa+DxH/urmuz4S7l0oaEGYUe+4w+v7v2THLA+k0HXicBKHnMO86welOETC0UjnecsF2XokUTBTi1cHoE1S6CCBCx00Gqxf3r1tgQA9QKpAYR3rSHRNFfmxKRHuQwfqGImDEJJ7OWtJiDuNLBj6NGw3N5KHtAldFc9sRpUm/bSjFSUBj9CH+8PYzvv84fvIXofWgZprEtPyz0rjr1KVJdYxbxNy85KAA4eeKXcr+7jXEBwbrNkIMQJDG/axtinIe8vuNdGldNPZJ/3ZcOX1TOjkEgK8tNJt+P2OlqUHPJkQwTYgrOCcTMAu1KYGVO09aPtbN8uvoN+BKoDXPdGX7jbKCr9EjrxI7D4oWS+OLeY63PCwClInVS0erutkA5dVysoFTQxoH9VUDcHmzU0ajtBGV1Om8zcc/Y8Y5ZYpHwmcqWsLmIe4JhnpudEpYUpt0H26QH7riqX/p1CoKWpHcNPn4r7eyEnMJ4OPdiqQDSP382ucAsdX8komo+bCFdJRo77wa2z6xwNeK9D6Kf4kmcLpLdL2Z4Vwar7769s19NnY60akw+u5kYDWDjmwLWLRnSwzQrQme5zWHHjXrHGGF9cGtOADn9/CX37eaEMVw5jZSN4SJ8Tw28pwiNRJ3m7DyBMnUR4hiZzZRL4Bi9HCKrOXCr9NgYenwbgG0AA1lpuzet+quo4vCPieNDgiXpWVMBbKt47VemANw1nAufG7hKxGfD6QsKy11joH2yvAfkUlVrUhNXcJb1oIK/bAkGaNA/Cn+/4CRN9k8xAwRMFHf9u4LHMbKpBRB2MW/xTmF4Jh59uUUP6gEsLiuTOaMrIRCPEEx515coBEpzRNzUAaHm4fZAXIgVssRprv9Ev4IjpGsQ6anLwLQSVkMJuBI5er4N7tuYS1e5rtWjWq8ItEqYEENDbamiYrqAxqsUHFclqw6Fpw+Pv3+m80epe+WSbMKHsuXazTKVChepQyno2oVIZ/LnD2pOI+UDar8vXW76sPoKxuL6PRVrpNcwcTx0qBKY7HZFohZGN+BK3qMwMs5g4NuUYWOKeL5k81vXRuzLx8NNkBuRwAyDaCEXXWeEpz8id0R9+CkU66vQ7Yy9qIbGHP22eqxKXyFJqJ7GGM06JiZXkWRAONZGb6jpVpOBxKCIZpjTlyZT3lMU3WtlO5Gy56hc9L1KKiQD20cp6CgnWwpYpU75vpDThwCahfDpjZDEF+MCxJ8Xh84KseOwL0c38UgVbhPVpM7SG8kpDBNwUMfQ6rgaCTm9R/KLlpYslNZgLuzeSTsN359oL4PWC5aoMD+2yeoJWAbQk1nnrMIBJiIaosk6YP/4TIPMGCNJ2n5kYwenWORYGO/eG/9EKHXfOrMLlOLcYCVKT9OQ+aAkjS2qgeRCZz4O9tIAWhRN1qqlQDg+Xa2m+8y8GV/RF4LIDDgzO9eLUb2R6h+x1j2jmjx1B2xapFqNym+SH2OnAbJ9DpcN8HOkGwOPVvzVljpqFQsj801NNMeHn+i90j+A54PoAAyjJWp3dBGDK98xb3ywO0yl+eSpau0rtRBgbOmcFQKoyjM5uxMhc8Cm5TjKvs17c8op21L7Xf0jgCVitDFFtjSmIacGbZTVycoDzyMe3a5Lvg8PaOxivR/5Pi3rTIy7ZQAD3wOn6f9qiWSCw687SvRab0vjjv8xFn1V5vRosmHK8g3ILbde6F1LxJbkxefD9hHNTLM/JR3fRIx8hykh2KWMp7yiCOVynMKxbX9CmN1w9UkUvPVQ7FFIIdSRvqTOdHNM3UiPXeREdXj8U6rFdkyurr/BDoXwRBhWE9bh/oYXmsJ4zdVgCI2Oudl3NsRRj7nKMkrRKvAnpreVW5eQaiHdDeyjs1L2y6zpHgeHDMNGmln8MsDFnvKH13fF2mqUQzYiupHH7zX4bbJYcGpHZoyEbQ0yvfsdHVGgkgpBIAhFCeNJ7PLrCngaG5qWB7uDeMzhqVDeTSUyBy8dbvt2cmcBvtZCIqRiVzGgKKWFiZ/EHxkgboUoRBkh4Rho7dS0j9JFEGkHv/2Fy+D1cviRA0+8k/rakZMfYe2CkrHCa7kBfgu2wF1KCm9xwpF7WPRlXK/vOCY+aJ70rK5LVOpSWLzvkp4zC+BuTiKE9TmVPa2GEm5LsvvnHIG8frhiN6dTuRqFP4LvY7vwQiS/7JZU4CeXq7rEnNiYLi2/JgI1MLm7IJlXgozYsh7DsANeLqMGu3/wbRWQbB3nNaf8gMOKnegwXF+gJ8Tb2QCR+vCpSEmWOZmJfXKcJ0tPRD4/kT9RZoKDsPw9ymON+T3ZZqRcFDTURwp9X8zXjfvRhaYxI9EfRM8FXu65lAXUbCECs+9CEs+hr1AjCtebmizigCzNlZZdybSzo8K65UEm9+h234fvzcj5xaRDaqXef0pOIYcevgL7wcZxH7Q6W25/t3zPMYwbjQem+8vWHlTyspkHez++Dh++kKWn3hqZpsY4GhGUQ1UspOEvi8c/FzL5e0ur0+3oAFPpap8L7opm0a4AWRQ0y44PBRfYvgC6NwPw/WRJgXheS/AMCOP1GiSq3skN0ZiaV+Hvc5xwhmfkcUeIhzaLqw9YR7V1Up0IH0/9TmmBDBxrTKUbo2Cr60Axu5OJqxjw0TWRvMqExO7BRqbIl5Nz/5Odha29Q8fvZkwsZg51fJREH/xuHYj/bVACIdyY6OfXwKyJm/H8ttfN3/7UqIzSof807L6vRArxYTuusFyciIVnIQgAR2mXjMblUdIMj6GgzU3bvIGShS7ccboil8vkM2UgA3yz+aVYuqYCAIMuR+2Xt/NNhx6GcUfzUHbfeuNeQW9tSDN7luT06di1EXB1coDL01vUc1vC4X8WHTzJ/NvEdDDFpf1zHSn+S2dvL36su9TueMuybcImTRUkvgwVLQ/56Kw2MMRu/qJfC5TKcUFVEfOf72kEB9+T7U7J/nS3NcJQZ5RUPHg/bH13qDxhtJawP3FD9mN1N+sKp1c08bsqc5STaa8svKJTLuoUTuQY+cNCjTrMo83nQRQf+yIizDwD51i1HucEcZa2w49QunDGSwTC99UdMgs4rWbj80Pj7fIVktWKBGtrU8xirevWsWsOwpmQ/R3fOXP9rStXmbfy5MJ5psko0h+JpB5f4iDjRNzIdiYV6igQEHtQkhb6CNInA6OTU8qQHkA8Ax2HyVwW5Wn5oYHb2Umgx2QT02/4/so3QZvLxPMecc/njzSjohID5vHHcFoN2zwZoIl/2Ucxuc1rCTNrCPKANtEMUXk/f/41ZruM+sHA05/9Gc8QFpmxmr0IpTzPMlvlpa/8TnrVR2tf/BUaBmsMz7jgixNM38uerk2Oh7zyLa5UEb1OCg8I2sNJ8mHHZYIGwR7wquH1PMFQuchm3Wxleu1YgBextbeBzwsNpEgQh/ZkCupVNw5mVJeqE4pmqGMmrEYE3GLfL05I71X5Ys+u8qNeXeXC+pJnN5CDxs44/fodiset4a+UDHJVCAQG8PjXXHKfyCgTY2b2oQQTz3hPcGglmgnnbZM7UL64tN+q9scMgdUk8WWpoz5VZJQrqSUgALEyApI0NiRMG6/AgQddhelwhiZhMA3o0qi03Y2lYvDcA1QTwY+4B0OacT7EP4vNlSIc+Fb90fme60NhGt9RZ6BZj7mFHHMv9qn4R6QqcF/u+ZMnSqo0k7kK/8yXJnYc0f2j1O41XHjtGmdifHv3kEMPkRaMuO+sdsVUVNdlgHCJ/gyKLxu0eV76pdEgRp/p16z/C/XCkPrIabSiayowgrCmI8oIJA1QbNBl9m6VRzkqZWi2zQRaLTy+iUNmrgs8ka/nSxPW1Oba26PEMs1oLIyBLWCuVwtmiQ0HfPhyOykPiLspB76VtOgl2WZayysNaUNjKvyHb43Ruq30Q0QSWKF4wCM80O6Ke5iCoy0ng0MZO7i2OzugCGaXnWVx+cckTpHGKEEwzEwW/VSwyYLaWb3dYJjopvZRo/U5cKqTDWXPMH7hWvZP4pVNaz9UgzoVBGh+xa7S2IquQPrZlMjLx4rgH+21DRcrDKELlQHCj6sWOuCPAoaZlSUt1nJeyRiai345kk6klbkVEb3W9ywxJ4n8UECATEB6n9BJYYtp0I/ZACb+jkrZc24mSASLgBIjwjOJc0ohgRdh8vbpqtW2G6pAvZSQ/khb7tVemQNL4Z5L8wAeekparc6ozwqDU/bNbW4GHEE5AvsHhneFUp4v5SmL0oBmaI5OurfkNGc1QYvxigqSiIQOQWWsKPMQpyRRSU6T67a+7ewLe/O27YWQvdQowIu04zUuyElX+fhdYUipmSB6gctiRxUYQwaAsQIFaTZmYLWSmb7NJH6DsbOYYgujstRbDVmE+7LXq2KTYHjAbHXDiFEgs3tof+NEE4Wb4GVWeqXoEyPhFZIX3rvY2YLN9q8b1cUdYvTnYgAETuuLVlvsKUC90i6b1Y2SoJaG4HUEjNzzRcG99dZ1fLRtxh3rluHkMvOZHp+PRvipFdRKCkilgm+dLA4G2QJ7SOraZurrBzNtEuoF+Pn7e+l70fdpPguIG27SHx5TbOda9RZQgMQJMbdHkW/T61li06tn/MfzPNI5MsBbp8yNuvdSqhD26BO0JSMaaXyKIUbbJpKVxHVAnpp0l/wKRlETxme7pVkzEkt6PIeTYhqiczAdIHZSQ/OzHJHjglwD0aisiGesXeGtWZsw0MmwAFU9fVBGc96t4JGCp/pGdQwAi4MBzdFrgCDzExEszmg9VI4xEEF4xIFRl8FrNGHdMFqLV0vz8hw9XW4rq+XzcRxTl/6RPpxmRG/2E9F1mj9joAIvUTkRBXwxDNhh5fzEmsf74qta1M98DARN5we3wb3RwHaaNdkyulvjqx0jrncL3/ElEZgXXEiCI5vLQmGP4YRinfcbdzfUS/+KH9oaR5fvCS92u6TPoY1Tu1JZpxsTe6xDUJYAIKgurwTRI2/D1wNzLP60X1rJBY8jjSQXRAAAA=" vertex="1" parent="1">
          <mxGeometry x="1658" y="750" width="191.36" height="160" as="geometry" />
        </mxCell>
      </root>
    </mxGraphModel>
  </diagram>
</mxfile>
